<?xml version="1.0" encoding="UTF-8" standalone="no"?>
<!DOCTYPE svg PUBLIC "-//W3C//DTD SVG 1.1//EN"
 "http://www.w3.org/Graphics/SVG/1.1/DTD/svg11.dtd">
<!-- Generated by graphviz version 12.2.1 (20241206.2353)
 -->
<!-- Title: n_core_property_map Pages: 1 -->
<svg width="492pt" height="728pt"
 viewBox="0.00 0.00 491.92 727.90" xmlns="http://www.w3.org/2000/svg" xmlns:xlink="http://www.w3.org/1999/xlink">
<g id="graph0" class="graph" transform="scale(1 1) rotate(0) translate(25.2 702.7)">
<title>n_core_property_map</title>
<polygon fill="white" stroke="none" points="-25.2,25.2 -25.2,-702.7 466.72,-702.7 466.72,25.2 -25.2,25.2"/>
<text text-anchor="middle" x="220.76" y="-652.6" font-family="Times,serif" font-size="22.00">Core object properties</text>
<!-- n_Clause -->
<g id="node1" class="node">
<title>n_Clause</title>
<path fill="#f8fafc" stroke="#64748b" d="M242.13,-644C242.13,-644 212.13,-644 212.13,-644 206.13,-644 200.13,-638 200.13,-632 200.13,-632 200.13,-620 200.13,-620 200.13,-614 206.13,-608 212.13,-608 212.13,-608 242.13,-608 242.13,-608 248.13,-608 254.13,-614 254.13,-620 254.13,-620 254.13,-632 254.13,-632 254.13,-638 248.13,-644 242.13,-644"/>
<text text-anchor="middle" x="227.13" y="-621.55" font-family="Helvetica,sans-Serif" font-size="11.00">Clause</text>
</g>
<!-- n_Contract -->
<g id="node2" class="node">
<title>n_Contract</title>
<path fill="#f8fafc" stroke="#64748b" d="M42,-340C42,-340 12,-340 12,-340 6,-340 0,-334 0,-328 0,-328 0,-316 0,-316 0,-310 6,-304 12,-304 12,-304 42,-304 42,-304 48,-304 54,-310 54,-316 54,-316 54,-328 54,-328 54,-334 48,-340 42,-340"/>
<text text-anchor="middle" x="27" y="-317.55" font-family="Helvetica,sans-Serif" font-size="11.00">Contract</text>
</g>
<!-- n_Contract&#45;&gt;n_Clause -->
<g id="edge1" class="edge">
<title>n_Contract&#45;&gt;n_Clause</title>
<path fill="none" stroke="#64748b" d="M28.03,-340.44C28.96,-379.45 35.93,-471.7 79,-532 107.18,-571.45 157.58,-598.3 191.44,-612.89"/>
<polygon fill="#64748b" stroke="#64748b" points="190.34,-615.28 198.27,-615.75 192.37,-610.43 190.34,-615.28"/>
<text text-anchor="middle" x="115" y="-593.57" font-family="Helvetica,sans-Serif" font-size="9.00">has clause</text>
</g>
<!-- n_ContractDocument -->
<g id="node3" class="node">
<title>n_ContractDocument</title>
<path fill="#f8fafc" stroke="#64748b" d="M266.27,-568C266.27,-568 188,-568 188,-568 182,-568 176,-562 176,-556 176,-556 176,-544 176,-544 176,-538 182,-532 188,-532 188,-532 266.27,-532 266.27,-532 272.27,-532 278.27,-538 278.27,-544 278.27,-544 278.27,-556 278.27,-556 278.27,-562 272.27,-568 266.27,-568"/>
<text text-anchor="middle" x="227.13" y="-545.55" font-family="Helvetica,sans-Serif" font-size="11.00">ContractDocument</text>
</g>
<!-- n_Contract&#45;&gt;n_ContractDocument -->
<g id="edge2" class="edge">
<title>n_Contract&#45;&gt;n_ContractDocument</title>
<path fill="none" stroke="#64748b" d="M31.21,-340.15C36.82,-367.57 50.64,-420.05 79,-455 104.79,-486.78 144.13,-511.4 175.65,-527.61"/>
<polygon fill="#64748b" stroke="#64748b" points="174.25,-529.84 182.13,-530.86 176.61,-525.15 174.25,-529.84"/>
<text text-anchor="middle" x="115" y="-513.41" font-family="Helvetica,sans-Serif" font-size="9.00">has document</text>
</g>
<!-- n_ContractEvent -->
<g id="node4" class="node">
<title>n_ContractEvent</title>
<path fill="#f8fafc" stroke="#64748b" d="M256.14,-492C256.14,-492 198.12,-492 198.12,-492 192.12,-492 186.12,-486 186.12,-480 186.12,-480 186.12,-468 186.12,-468 186.12,-462 192.12,-456 198.12,-456 198.12,-456 256.14,-456 256.14,-456 262.14,-456 268.14,-462 268.14,-468 268.14,-468 268.14,-480 268.14,-480 268.14,-486 262.14,-492 256.14,-492"/>
<text text-anchor="middle" x="227.13" y="-469.55" font-family="Helvetica,sans-Serif" font-size="11.00">Contract event</text>
</g>
<!-- n_Contract&#45;&gt;n_ContractEvent -->
<g id="edge3" class="edge">
<title>n_Contract&#45;&gt;n_ContractEvent</title>
<path fill="none" stroke="#64748b" d="M39.36,-340.36C48.76,-354.54 63.12,-374.04 79,-388 108.69,-414.09 147.45,-436.36 177.73,-451.7"/>
<polygon fill="#64748b" stroke="#64748b" points="176.4,-453.97 184.28,-454.97 178.74,-449.27 176.4,-453.97"/>
<text text-anchor="middle" x="115" y="-436.73" font-family="Helvetica,sans-Serif" font-size="9.00">has event</text>
</g>
<!-- n_ContractTerm -->
<g id="node5" class="node">
<title>n_ContractTerm</title>
<path fill="#f8fafc" stroke="#64748b" d="M253.89,-416C253.89,-416 200.38,-416 200.38,-416 194.38,-416 188.38,-410 188.38,-404 188.38,-404 188.38,-392 188.38,-392 188.38,-386 194.38,-380 200.38,-380 200.38,-380 253.89,-380 253.89,-380 259.89,-380 265.89,-386 265.89,-392 265.89,-392 265.89,-404 265.89,-404 265.89,-410 259.89,-416 253.89,-416"/>
<text text-anchor="middle" x="227.13" y="-393.55" font-family="Helvetica,sans-Serif" font-size="11.00">Contract term</text>
</g>
<!-- n_Contract&#45;&gt;n_ContractTerm -->
<g id="edge4" class="edge">
<title>n_Contract&#45;&gt;n_ContractTerm</title>
<path fill="none" stroke="#64748b" d="M54.45,-332.43C62.34,-335.53 71.02,-338.92 79,-342 112.65,-355 150.7,-369.48 179.68,-380.46"/>
<polygon fill="#64748b" stroke="#64748b" points="178.63,-382.86 186.57,-383.07 180.49,-377.95 178.63,-382.86"/>
<text text-anchor="middle" x="115" y="-369.42" font-family="Helvetica,sans-Serif" font-size="9.00">has term</text>
</g>
<!-- n_Customer -->
<g id="node6" class="node">
<title>n_Customer</title>
<path fill="#f8fafc" stroke="#64748b" d="M244.52,-340C244.52,-340 209.75,-340 209.75,-340 203.75,-340 197.75,-334 197.75,-328 197.75,-328 197.75,-316 197.75,-316 197.75,-310 203.75,-304 209.75,-304 209.75,-304 244.52,-304 244.52,-304 250.52,-304 256.52,-310 256.52,-316 256.52,-316 256.52,-328 256.52,-328 256.52,-334 250.52,-340 244.52,-340"/>
<text text-anchor="middle" x="227.13" y="-317.55" font-family="Helvetica,sans-Serif" font-size="11.00">Customer</text>
</g>
<!-- n_Contract&#45;&gt;n_Customer -->
<g id="edge5" class="edge">
<title>n_Contract&#45;&gt;n_Customer</title>
<path fill="none" stroke="#64748b" d="M54.31,-322C88.71,-322 149.2,-322 188.46,-322"/>
<polygon fill="#64748b" stroke="#64748b" points="188.45,-324.63 195.95,-322 188.45,-319.38 188.45,-324.63"/>
<text text-anchor="middle" x="115" y="-323.2" font-family="Helvetica,sans-Serif" font-size="9.00">has customer</text>
</g>
<!-- n_LifecycleState -->
<g id="node7" class="node">
<title>n_LifecycleState</title>
<path fill="#f8fafc" stroke="#64748b" d="M254.64,-264C254.64,-264 199.62,-264 199.62,-264 193.62,-264 187.62,-258 187.62,-252 187.62,-252 187.62,-240 187.62,-240 187.62,-234 193.62,-228 199.62,-228 199.62,-228 254.64,-228 254.64,-228 260.64,-228 266.64,-234 266.64,-240 266.64,-240 266.64,-252 266.64,-252 266.64,-258 260.64,-264 254.64,-264"/>
<text text-anchor="middle" x="227.13" y="-241.55" font-family="Helvetica,sans-Serif" font-size="11.00">Lifecycle state</text>
</g>
<!-- n_Contract&#45;&gt;n_LifecycleState -->
<g id="edge6" class="edge">
<title>n_Contract&#45;&gt;n_LifecycleState</title>
<path fill="none" stroke="#64748b" d="M54.46,-311.73C62.35,-308.67 71.02,-305.32 79,-302.25 112.45,-289.38 150.22,-274.94 179.11,-263.92"/>
<polygon fill="#64748b" stroke="#64748b" points="179.91,-266.42 185.98,-261.3 178.04,-261.52 179.91,-266.42"/>
<text text-anchor="middle" x="115" y="-303.45" font-family="Helvetica,sans-Serif" font-size="9.00">has lifecycle state</text>
</g>
<!-- n_Obligation -->
<g id="node8" class="node">
<title>n_Obligation</title>
<path fill="#f8fafc" stroke="#64748b" d="M244.89,-188C244.89,-188 209.38,-188 209.38,-188 203.38,-188 197.38,-182 197.38,-176 197.38,-176 197.38,-164 197.38,-164 197.38,-158 203.38,-152 209.38,-152 209.38,-152 244.89,-152 244.89,-152 250.89,-152 256.89,-158 256.89,-164 256.89,-164 256.89,-176 256.89,-176 256.89,-182 250.89,-188 244.89,-188"/>
<text text-anchor="middle" x="227.13" y="-165.55" font-family="Helvetica,sans-Serif" font-size="11.00">Obligation</text>
</g>
<!-- n_Contract&#45;&gt;n_Obligation -->
<g id="edge7" class="edge">
<title>n_Contract&#45;&gt;n_Obligation</title>
<path fill="none" stroke="#64748b" d="M39.38,-303.72C48.79,-289.6 63.15,-270.17 79,-256.25 112.49,-226.84 157.48,-202.19 188.85,-186.87"/>
<polygon fill="#64748b" stroke="#64748b" points="189.94,-189.27 195.56,-183.65 187.66,-184.54 189.94,-189.27"/>
<text text-anchor="middle" x="115" y="-257.45" font-family="Helvetica,sans-Serif" font-size="9.00">has obligation</text>
</g>
<!-- n_Right -->
<g id="node10" class="node">
<title>n_Right</title>
<path fill="#f8fafc" stroke="#64748b" d="M242.13,-112C242.13,-112 212.13,-112 212.13,-112 206.13,-112 200.13,-106 200.13,-100 200.13,-100 200.13,-88 200.13,-88 200.13,-82 206.13,-76 212.13,-76 212.13,-76 242.13,-76 242.13,-76 248.13,-76 254.13,-82 254.13,-88 254.13,-88 254.13,-100 254.13,-100 254.13,-106 248.13,-112 242.13,-112"/>
<text text-anchor="middle" x="227.13" y="-89.55" font-family="Helvetica,sans-Serif" font-size="11.00">Right</text>
</g>
<!-- n_Contract&#45;&gt;n_Right -->
<g id="edge8" class="edge">
<title>n_Contract&#45;&gt;n_Right</title>
<path fill="none" stroke="#64748b" d="M31.22,-303.88C36.86,-276.52 50.69,-224.15 79,-189.25 109.4,-151.78 158.59,-124.18 191.63,-108.61"/>
<polygon fill="#64748b" stroke="#64748b" points="192.57,-111.06 198.28,-105.54 190.37,-106.29 192.57,-111.06"/>
<text text-anchor="middle" x="115" y="-190.45" font-family="Helvetica,sans-Serif" font-size="9.00">has right</text>
</g>
<!-- n_Supplier -->
<g id="node11" class="node">
<title>n_Supplier</title>
<path fill="#f8fafc" stroke="#64748b" d="M242.13,-36C242.13,-36 212.13,-36 212.13,-36 206.13,-36 200.13,-30 200.13,-24 200.13,-24 200.13,-12 200.13,-12 200.13,-6 206.13,0 212.13,0 212.13,0 242.13,0 242.13,0 248.13,0 254.13,-6 254.13,-12 254.13,-12 254.13,-24 254.13,-24 254.13,-30 248.13,-36 242.13,-36"/>
<text text-anchor="middle" x="227.13" y="-13.55" font-family="Helvetica,sans-Serif" font-size="11.00">Supplier</text>
</g>
<!-- n_Contract&#45;&gt;n_Supplier -->
<g id="edge9" class="edge">
<title>n_Contract&#45;&gt;n_Supplier</title>
<path fill="none" stroke="#64748b" d="M28.04,-303.59C29,-264.63 36.01,-172.5 79,-112.25 107.18,-72.75 157.59,-45.82 191.44,-31.17"/>
<polygon fill="#64748b" stroke="#64748b" points="192.38,-33.62 198.27,-28.29 190.34,-28.78 192.38,-33.62"/>
<text text-anchor="middle" x="115" y="-113.45" font-family="Helvetica,sans-Serif" font-size="9.00">has supplier</text>
</g>
<!-- n_Party -->
<g id="node9" class="node">
<title>n_Party</title>
<path fill="#f8fafc" stroke="#64748b" d="M429.52,-167C429.52,-167 399.52,-167 399.52,-167 393.52,-167 387.52,-161 387.52,-155 387.52,-155 387.52,-143 387.52,-143 387.52,-137 393.52,-131 399.52,-131 399.52,-131 429.52,-131 429.52,-131 435.52,-131 441.52,-137 441.52,-143 441.52,-143 441.52,-155 441.52,-155 441.52,-161 435.52,-167 429.52,-167"/>
<text text-anchor="middle" x="414.52" y="-144.55" font-family="Helvetica,sans-Serif" font-size="11.00">Party</text>
</g>
<!-- n_Obligation&#45;&gt;n_Party -->
<g id="edge10" class="edge">
<title>n_Obligation&#45;&gt;n_Party</title>
<path fill="none" stroke="#64748b" d="M257.36,-168.99C284.67,-167.77 326.51,-165.2 362.52,-160 367.69,-159.25 373.12,-158.29 378.42,-157.23"/>
<polygon fill="#64748b" stroke="#64748b" points="378.89,-159.82 385.69,-155.72 377.82,-154.68 378.89,-159.82"/>
<text text-anchor="middle" x="332.89" y="-167.41" font-family="Helvetica,sans-Serif" font-size="9.00">owed by</text>
</g>
<!-- n_Obligation&#45;&gt;n_Party -->
<g id="edge11" class="edge">
<title>n_Obligation&#45;&gt;n_Party</title>
<path fill="none" stroke="#64748b" d="M257.37,-159.97C271.12,-155.76 287.85,-151.36 303.27,-149.25 328.16,-145.85 356.51,-145.87 378.23,-146.7"/>
<polygon fill="#64748b" stroke="#64748b" points="377.98,-149.31 385.59,-147.03 378.21,-144.07 377.98,-149.31"/>
<text text-anchor="middle" x="332.89" y="-150.45" font-family="Helvetica,sans-Serif" font-size="9.00">owed to</text>
</g>
<!-- n_Right&#45;&gt;n_Party -->
<g id="edge12" class="edge">
<title>n_Right&#45;&gt;n_Party</title>
<path fill="none" stroke="#64748b" d="M254.55,-98.84C281.95,-104.21 325.83,-113.78 362.52,-126.25 368.01,-128.12 373.72,-130.35 379.24,-132.68"/>
<polygon fill="#64748b" stroke="#64748b" points="377.84,-134.94 385.77,-135.53 379.94,-130.12 377.84,-134.94"/>
<text text-anchor="middle" x="332.89" y="-127.45" font-family="Helvetica,sans-Serif" font-size="9.00">exercisable by</text>
</g>
</g>
</svg>
