<?xml version="1.0" encoding="UTF-8" standalone="no"?>
<!DOCTYPE svg PUBLIC "-//W3C//DTD SVG 1.1//EN"
 "http://www.w3.org/Graphics/SVG/1.1/DTD/svg11.dtd">
<!-- Generated by graphviz version 12.2.1 (20241206.2353)
 -->
<!-- Title: n_core_class_hierarchy Pages: 1 -->
<svg width="7424pt" height="407pt"
 viewBox="0.00 0.00 7423.92 407.15" xmlns="http://www.w3.org/2000/svg" xmlns:xlink="http://www.w3.org/1999/xlink">
<g id="graph0" class="graph" transform="scale(1 1) rotate(0) translate(25.2 381.95)">
<title>n_core_class_hierarchy</title>
<polygon fill="white" stroke="none" points="-25.2,25.2 -25.2,-381.95 7398.72,-381.95 7398.72,25.2 -25.2,25.2"/>
<text text-anchor="middle" x="3686.76" y="-331.85" font-family="Times,serif" font-size="22.00">Core class hierarchy</text>
<!-- n_ActiveState -->
<g id="node1" class="node">
<title>n_ActiveState</title>
<path fill="#f8fafc" stroke="#64748b" d="M55.02,-323.25C55.02,-323.25 12,-323.25 12,-323.25 6,-323.25 0,-317.25 0,-311.25 0,-311.25 0,-299.25 0,-299.25 0,-293.25 6,-287.25 12,-287.25 12,-287.25 55.02,-287.25 55.02,-287.25 61.02,-287.25 67.02,-293.25 67.02,-299.25 67.02,-299.25 67.02,-311.25 67.02,-311.25 67.02,-317.25 61.02,-323.25 55.02,-323.25"/>
<text text-anchor="middle" x="33.51" y="-300.8" font-family="Helvetica,sans-Serif" font-size="11.00">Active state</text>
</g>
<!-- n_LifecycleState -->
<g id="node48" class="node">
<title>n_LifecycleState</title>
<path fill="#f8fafc" stroke="#64748b" d="M402.02,-227.5C402.02,-227.5 347,-227.5 347,-227.5 341,-227.5 335,-221.5 335,-215.5 335,-215.5 335,-203.5 335,-203.5 335,-197.5 341,-191.5 347,-191.5 347,-191.5 402.02,-191.5 402.02,-191.5 408.02,-191.5 414.02,-197.5 414.02,-203.5 414.02,-203.5 414.02,-215.5 414.02,-215.5 414.02,-221.5 408.02,-227.5 402.02,-227.5"/>
<text text-anchor="middle" x="374.51" y="-205.05" font-family="Helvetica,sans-Serif" font-size="11.00">Lifecycle state</text>
</g>
<!-- n_ActiveState&#45;&gt;n_LifecycleState -->
<g id="edge1" class="edge">
<title>n_ActiveState&#45;&gt;n_LifecycleState</title>
<path fill="none" stroke="#64748b" d="M67.52,-289.91C95.31,-278.59 135.82,-263.01 172.26,-252.5 223.94,-237.59 284.49,-225.73 325.78,-218.47"/>
<polygon fill="#64748b" stroke="#64748b" points="326.11,-221.08 333.05,-217.21 325.21,-215.9 326.11,-221.08"/>
<text text-anchor="middle" x="195.89" y="-253.7" font-family="Helvetica,sans-Serif" font-size="9.00">subClassOf</text>
</g>
<!-- n_AmendmentEvent -->
<g id="node2" class="node">
<title>n_AmendmentEvent</title>
<path fill="#f8fafc" stroke="#64748b" d="M922.15,-323.25C922.15,-323.25 846.88,-323.25 846.88,-323.25 840.88,-323.25 834.88,-317.25 834.88,-311.25 834.88,-311.25 834.88,-299.25 834.88,-299.25 834.88,-293.25 840.88,-287.25 846.88,-287.25 846.88,-287.25 922.15,-287.25 922.15,-287.25 928.15,-287.25 934.15,-293.25 934.15,-299.25 934.15,-299.25 934.15,-311.25 934.15,-311.25 934.15,-317.25 928.15,-323.25 922.15,-323.25"/>
<text text-anchor="middle" x="884.51" y="-300.8" font-family="Helvetica,sans-Serif" font-size="11.00">Amendment event</text>
</g>
<!-- n_ContractEvent -->
<g id="node22" class="node">
<title>n_ContractEvent</title>
<path fill="#f8fafc" stroke="#64748b" d="M1342.52,-227.5C1342.52,-227.5 1284.5,-227.5 1284.5,-227.5 1278.5,-227.5 1272.5,-221.5 1272.5,-215.5 1272.5,-215.5 1272.5,-203.5 1272.5,-203.5 1272.5,-197.5 1278.5,-191.5 1284.5,-191.5 1284.5,-191.5 1342.52,-191.5 1342.52,-191.5 1348.52,-191.5 1354.52,-197.5 1354.52,-203.5 1354.52,-203.5 1354.52,-215.5 1354.52,-215.5 1354.52,-221.5 1348.52,-227.5 1342.52,-227.5"/>
<text text-anchor="middle" x="1313.51" y="-205.05" font-family="Helvetica,sans-Serif" font-size="11.00">Contract event</text>
</g>
<!-- n_AmendmentEvent&#45;&gt;n_ContractEvent -->
<g id="edge2" class="edge">
<title>n_AmendmentEvent&#45;&gt;n_ContractEvent</title>
<path fill="none" stroke="#64748b" d="M934.32,-287.47C968.59,-276.39 1015.31,-262.18 1057.26,-252.5 1128.27,-236.12 1211.77,-223.68 1263.68,-216.73"/>
<polygon fill="#64748b" stroke="#64748b" points="1263.77,-219.37 1270.86,-215.78 1263.08,-214.16 1263.77,-219.37"/>
<text text-anchor="middle" x="1080.89" y="-253.7" font-family="Helvetica,sans-Serif" font-size="9.00">subClassOf</text>
</g>
<!-- n_Approval -->
<g id="node3" class="node">
<title>n_Approval</title>
<path fill="#f8fafc" stroke="#64748b" d="M2095.65,-323.25C2095.65,-323.25 2065.38,-323.25 2065.38,-323.25 2059.38,-323.25 2053.38,-317.25 2053.38,-311.25 2053.38,-311.25 2053.38,-299.25 2053.38,-299.25 2053.38,-293.25 2059.38,-287.25 2065.38,-287.25 2065.38,-287.25 2095.65,-287.25 2095.65,-287.25 2101.65,-287.25 2107.65,-293.25 2107.65,-299.25 2107.65,-299.25 2107.65,-311.25 2107.65,-311.25 2107.65,-317.25 2101.65,-323.25 2095.65,-323.25"/>
<text text-anchor="middle" x="2080.51" y="-300.8" font-family="Helvetica,sans-Serif" font-size="11.00">Approval</text>
</g>
<!-- n_ApprovedState -->
<g id="node4" class="node">
<title>n_ApprovedState</title>
<path fill="#f8fafc" stroke="#64748b" d="M179.65,-323.25C179.65,-323.25 119.38,-323.25 119.38,-323.25 113.38,-323.25 107.38,-317.25 107.38,-311.25 107.38,-311.25 107.38,-299.25 107.38,-299.25 107.38,-293.25 113.38,-287.25 119.38,-287.25 119.38,-287.25 179.65,-287.25 179.65,-287.25 185.65,-287.25 191.65,-293.25 191.65,-299.25 191.65,-299.25 191.65,-311.25 191.65,-311.25 191.65,-317.25 185.65,-323.25 179.65,-323.25"/>
<text text-anchor="middle" x="149.51" y="-300.8" font-family="Helvetica,sans-Serif" font-size="11.00">Approved state</text>
</g>
<!-- n_ApprovedState&#45;&gt;n_LifecycleState -->
<g id="edge3" class="edge">
<title>n_ApprovedState&#45;&gt;n_LifecycleState</title>
<path fill="none" stroke="#64748b" d="M179.92,-286.91C199.38,-276.2 225.37,-262.63 249.26,-252.5 274.18,-241.93 302.74,-232.18 326.29,-224.74"/>
<polygon fill="#64748b" stroke="#64748b" points="326.9,-227.3 333.27,-222.56 325.33,-222.29 326.9,-227.3"/>
<text text-anchor="middle" x="272.89" y="-253.7" font-family="Helvetica,sans-Serif" font-size="9.00">subClassOf</text>
</g>
<!-- n_AssignmentClause -->
<g id="node5" class="node">
<title>n_AssignmentClause</title>
<path fill="#f8fafc" stroke="#64748b" d="M3847.27,-227.5C3847.27,-227.5 3769.75,-227.5 3769.75,-227.5 3763.75,-227.5 3757.75,-221.5 3757.75,-215.5 3757.75,-215.5 3757.75,-203.5 3757.75,-203.5 3757.75,-197.5 3763.75,-191.5 3769.75,-191.5 3769.75,-191.5 3847.27,-191.5 3847.27,-191.5 3853.27,-191.5 3859.27,-197.5 3859.27,-203.5 3859.27,-203.5 3859.27,-215.5 3859.27,-215.5 3859.27,-221.5 3853.27,-227.5 3847.27,-227.5"/>
<text text-anchor="middle" x="3808.51" y="-205.05" font-family="Helvetica,sans-Serif" font-size="11.00">Assignment clause</text>
</g>
<!-- n_Clause -->
<g id="node11" class="node">
<title>n_Clause</title>
<path fill="#f8fafc" stroke="#64748b" d="M4866.51,-131.75C4866.51,-131.75 4836.51,-131.75 4836.51,-131.75 4830.51,-131.75 4824.51,-125.75 4824.51,-119.75 4824.51,-119.75 4824.51,-107.75 4824.51,-107.75 4824.51,-101.75 4830.51,-95.75 4836.51,-95.75 4836.51,-95.75 4866.51,-95.75 4866.51,-95.75 4872.51,-95.75 4878.51,-101.75 4878.51,-107.75 4878.51,-107.75 4878.51,-119.75 4878.51,-119.75 4878.51,-125.75 4872.51,-131.75 4866.51,-131.75"/>
<text text-anchor="middle" x="4851.51" y="-109.3" font-family="Helvetica,sans-Serif" font-size="11.00">Clause</text>
</g>
<!-- n_AssignmentClause&#45;&gt;n_Clause -->
<g id="edge4" class="edge">
<title>n_AssignmentClause&#45;&gt;n_Clause</title>
<path fill="none" stroke="#64748b" d="M3859.6,-195.78C3866.28,-194.26 3873.05,-192.79 3879.51,-191.5 3975.19,-172.4 3999.26,-167.19 4096.26,-156.75 4371.88,-127.07 4706.49,-117.78 4815.39,-115.43"/>
<polygon fill="#64748b" stroke="#64748b" points="4815.38,-118.06 4822.82,-115.28 4815.27,-112.81 4815.38,-118.06"/>
<text text-anchor="middle" x="4119.89" y="-157.95" font-family="Helvetica,sans-Serif" font-size="9.00">subClassOf</text>
</g>
<!-- n_AuditClause -->
<g id="node6" class="node">
<title>n_AuditClause</title>
<path fill="#f8fafc" stroke="#64748b" d="M3957.52,-227.5C3957.52,-227.5 3911.5,-227.5 3911.5,-227.5 3905.5,-227.5 3899.5,-221.5 3899.5,-215.5 3899.5,-215.5 3899.5,-203.5 3899.5,-203.5 3899.5,-197.5 3905.5,-191.5 3911.5,-191.5 3911.5,-191.5 3957.52,-191.5 3957.52,-191.5 3963.52,-191.5 3969.52,-197.5 3969.52,-203.5 3969.52,-203.5 3969.52,-215.5 3969.52,-215.5 3969.52,-221.5 3963.52,-227.5 3957.52,-227.5"/>
<text text-anchor="middle" x="3934.51" y="-205.05" font-family="Helvetica,sans-Serif" font-size="11.00">Audit clause</text>
</g>
<!-- n_AuditClause&#45;&gt;n_Clause -->
<g id="edge5" class="edge">
<title>n_AuditClause&#45;&gt;n_Clause</title>
<path fill="none" stroke="#64748b" d="M3969.77,-196.61C3976.28,-194.7 3983.06,-192.89 3989.51,-191.5 4109.38,-165.57 4141.21,-168.84 4263.26,-156.75 4471.84,-136.08 4723.01,-121.61 4815.26,-116.64"/>
<polygon fill="#64748b" stroke="#64748b" points="4815.34,-119.27 4822.69,-116.25 4815.06,-114.02 4815.34,-119.27"/>
<text text-anchor="middle" x="4286.89" y="-157.95" font-family="Helvetica,sans-Serif" font-size="9.00">subClassOf</text>
</g>
<!-- n_AuditObligation -->
<g id="node7" class="node">
<title>n_AuditObligation</title>
<path fill="#f8fafc" stroke="#64748b" d="M2247.02,-227.5C2247.02,-227.5 2186,-227.5 2186,-227.5 2180,-227.5 2174,-221.5 2174,-215.5 2174,-215.5 2174,-203.5 2174,-203.5 2174,-197.5 2180,-191.5 2186,-191.5 2186,-191.5 2247.02,-191.5 2247.02,-191.5 2253.02,-191.5 2259.02,-197.5 2259.02,-203.5 2259.02,-203.5 2259.02,-215.5 2259.02,-215.5 2259.02,-221.5 2253.02,-227.5 2247.02,-227.5"/>
<text text-anchor="middle" x="2216.51" y="-205.05" font-family="Helvetica,sans-Serif" font-size="11.00">Audit obligation</text>
</g>
<!-- n_Obligation -->
<g id="node54" class="node">
<title>n_Obligation</title>
<path fill="#f8fafc" stroke="#64748b" d="M2692.27,-131.75C2692.27,-131.75 2656.75,-131.75 2656.75,-131.75 2650.75,-131.75 2644.75,-125.75 2644.75,-119.75 2644.75,-119.75 2644.75,-107.75 2644.75,-107.75 2644.75,-101.75 2650.75,-95.75 2656.75,-95.75 2656.75,-95.75 2692.27,-95.75 2692.27,-95.75 2698.27,-95.75 2704.27,-101.75 2704.27,-107.75 2704.27,-107.75 2704.27,-119.75 2704.27,-119.75 2704.27,-125.75 2698.27,-131.75 2692.27,-131.75"/>
<text text-anchor="middle" x="2674.51" y="-109.3" font-family="Helvetica,sans-Serif" font-size="11.00">Obligation</text>
</g>
<!-- n_AuditObligation&#45;&gt;n_Obligation -->
<g id="edge6" class="edge">
<title>n_AuditObligation&#45;&gt;n_Obligation</title>
<path fill="none" stroke="#64748b" d="M2259.45,-196.36C2265.82,-194.67 2272.33,-192.99 2278.51,-191.5 2351.67,-173.82 2370.1,-169.62 2444.26,-156.75 2524.38,-142.84 2546.44,-150.72 2625.51,-131.75 2628.91,-130.93 2632.41,-129.97 2635.89,-128.93"/>
<polygon fill="#64748b" stroke="#64748b" points="2636.67,-131.44 2643.02,-126.67 2635.08,-126.44 2636.67,-131.44"/>
<text text-anchor="middle" x="2467.89" y="-157.95" font-family="Helvetica,sans-Serif" font-size="9.00">subClassOf</text>
</g>
<!-- n_AuditRight -->
<g id="node8" class="node">
<title>n_AuditRight</title>
<path fill="#f8fafc" stroke="#64748b" d="M3221.65,-227.5C3221.65,-227.5 3185.38,-227.5 3185.38,-227.5 3179.38,-227.5 3173.38,-221.5 3173.38,-215.5 3173.38,-215.5 3173.38,-203.5 3173.38,-203.5 3173.38,-197.5 3179.38,-191.5 3185.38,-191.5 3185.38,-191.5 3221.65,-191.5 3221.65,-191.5 3227.65,-191.5 3233.65,-197.5 3233.65,-203.5 3233.65,-203.5 3233.65,-215.5 3233.65,-215.5 3233.65,-221.5 3227.65,-227.5 3221.65,-227.5"/>
<text text-anchor="middle" x="3203.51" y="-205.05" font-family="Helvetica,sans-Serif" font-size="11.00">Audit right</text>
</g>
<!-- n_Right -->
<g id="node69" class="node">
<title>n_Right</title>
<path fill="#f8fafc" stroke="#64748b" d="M3218.51,-131.75C3218.51,-131.75 3188.51,-131.75 3188.51,-131.75 3182.51,-131.75 3176.51,-125.75 3176.51,-119.75 3176.51,-119.75 3176.51,-107.75 3176.51,-107.75 3176.51,-101.75 3182.51,-95.75 3188.51,-95.75 3188.51,-95.75 3218.51,-95.75 3218.51,-95.75 3224.51,-95.75 3230.51,-101.75 3230.51,-107.75 3230.51,-107.75 3230.51,-119.75 3230.51,-119.75 3230.51,-125.75 3224.51,-131.75 3218.51,-131.75"/>
<text text-anchor="middle" x="3203.51" y="-109.3" font-family="Helvetica,sans-Serif" font-size="11.00">Right</text>
</g>
<!-- n_AuditRight&#45;&gt;n_Right -->
<g id="edge7" class="edge">
<title>n_AuditRight&#45;&gt;n_Right</title>
<path fill="none" stroke="#64748b" d="M3203.51,-191.3C3203.51,-177.25 3203.51,-157.16 3203.51,-141.08"/>
<polygon fill="#64748b" stroke="#64748b" points="3206.14,-141.17 3203.51,-133.67 3200.89,-141.17 3206.14,-141.17"/>
<text text-anchor="middle" x="3227.14" y="-157.95" font-family="Helvetica,sans-Serif" font-size="9.00">subClassOf</text>
</g>
<!-- n_BreachEvent -->
<g id="node9" class="node">
<title>n_BreachEvent</title>
<path fill="#f8fafc" stroke="#64748b" d="M1037.15,-323.25C1037.15,-323.25 985.88,-323.25 985.88,-323.25 979.88,-323.25 973.88,-317.25 973.88,-311.25 973.88,-311.25 973.88,-299.25 973.88,-299.25 973.88,-293.25 979.88,-287.25 985.88,-287.25 985.88,-287.25 1037.15,-287.25 1037.15,-287.25 1043.15,-287.25 1049.15,-293.25 1049.15,-299.25 1049.15,-299.25 1049.15,-311.25 1049.15,-311.25 1049.15,-317.25 1043.15,-323.25 1037.15,-323.25"/>
<text text-anchor="middle" x="1011.51" y="-300.8" font-family="Helvetica,sans-Serif" font-size="11.00">Breach event</text>
</g>
<!-- n_BreachEvent&#45;&gt;n_ContractEvent -->
<g id="edge8" class="edge">
<title>n_BreachEvent&#45;&gt;n_ContractEvent</title>
<path fill="none" stroke="#64748b" d="M1049.54,-287.11C1074.66,-276.23 1108.5,-262.38 1139.26,-252.5 1180.5,-239.26 1228.42,-228 1263.55,-220.48"/>
<polygon fill="#64748b" stroke="#64748b" points="1263.92,-223.08 1270.71,-218.96 1262.83,-217.95 1263.92,-223.08"/>
<text text-anchor="middle" x="1162.89" y="-253.7" font-family="Helvetica,sans-Serif" font-size="9.00">subClassOf</text>
</g>
<!-- n_ChangeControlClause -->
<g id="node10" class="node">
<title>n_ChangeControlClause</title>
<path fill="#f8fafc" stroke="#64748b" d="M4115.9,-227.5C4115.9,-227.5 4021.12,-227.5 4021.12,-227.5 4015.12,-227.5 4009.12,-221.5 4009.12,-215.5 4009.12,-215.5 4009.12,-203.5 4009.12,-203.5 4009.12,-197.5 4015.12,-191.5 4021.12,-191.5 4021.12,-191.5 4115.9,-191.5 4115.9,-191.5 4121.9,-191.5 4127.9,-197.5 4127.9,-203.5 4127.9,-203.5 4127.9,-215.5 4127.9,-215.5 4127.9,-221.5 4121.9,-227.5 4115.9,-227.5"/>
<text text-anchor="middle" x="4068.51" y="-205.05" font-family="Helvetica,sans-Serif" font-size="11.00">Change control clause</text>
</g>
<!-- n_ChangeControlClause&#45;&gt;n_Clause -->
<g id="edge9" class="edge">
<title>n_ChangeControlClause&#45;&gt;n_Clause</title>
<path fill="none" stroke="#64748b" d="M4128.27,-195.36C4135.09,-193.99 4141.94,-192.67 4148.51,-191.5 4401.62,-146.24 4711.09,-123.67 4815.31,-116.95"/>
<polygon fill="#64748b" stroke="#64748b" points="4815.35,-119.58 4822.67,-116.48 4815.01,-114.34 4815.35,-119.58"/>
<text text-anchor="middle" x="4402.84" y="-157.95" font-family="Helvetica,sans-Serif" font-size="9.00">subClassOf</text>
</g>
<!-- n_ContractComponent -->
<g id="node21" class="node">
<title>n_ContractComponent</title>
<path fill="#f8fafc" stroke="#64748b" d="M2983.02,-36C2983.02,-36 2898,-36 2898,-36 2892,-36 2886,-30 2886,-24 2886,-24 2886,-12 2886,-12 2886,-6 2892,0 2898,0 2898,0 2983.02,0 2983.02,0 2989.02,0 2995.02,-6 2995.02,-12 2995.02,-12 2995.02,-24 2995.02,-24 2995.02,-30 2989.02,-36 2983.02,-36"/>
<text text-anchor="middle" x="2940.51" y="-13.55" font-family="Helvetica,sans-Serif" font-size="11.00">Contract component</text>
</g>
<!-- n_Clause&#45;&gt;n_ContractComponent -->
<g id="edge10" class="edge">
<title>n_Clause&#45;&gt;n_ContractComponent</title>
<path fill="none" stroke="#64748b" d="M4824.13,-111.41C4617.96,-101.29 3308.96,-37.08 3003.97,-22.11"/>
<polygon fill="#64748b" stroke="#64748b" points="3004.37,-19.5 2996.75,-21.76 3004.11,-24.75 3004.37,-19.5"/>
<text text-anchor="middle" x="3976.93" y="-62.2" font-family="Helvetica,sans-Serif" font-size="9.00">subClassOf</text>
</g>
<!-- n_CommercialRisk -->
<g id="node12" class="node">
<title>n_CommercialRisk</title>
<path fill="#f8fafc" stroke="#64748b" d="M6060.9,-323.25C6060.9,-323.25 5996.12,-323.25 5996.12,-323.25 5990.12,-323.25 5984.12,-317.25 5984.12,-311.25 5984.12,-311.25 5984.12,-299.25 5984.12,-299.25 5984.12,-293.25 5990.12,-287.25 5996.12,-287.25 5996.12,-287.25 6060.9,-287.25 6060.9,-287.25 6066.9,-287.25 6072.9,-293.25 6072.9,-299.25 6072.9,-299.25 6072.9,-311.25 6072.9,-311.25 6072.9,-317.25 6066.9,-323.25 6060.9,-323.25"/>
<text text-anchor="middle" x="6028.51" y="-300.8" font-family="Helvetica,sans-Serif" font-size="11.00">Commercial risk</text>
</g>
<!-- n_Risk -->
<g id="node70" class="node">
<title>n_Risk</title>
<path fill="#f8fafc" stroke="#64748b" d="M6228.51,-227.5C6228.51,-227.5 6198.51,-227.5 6198.51,-227.5 6192.51,-227.5 6186.51,-221.5 6186.51,-215.5 6186.51,-215.5 6186.51,-203.5 6186.51,-203.5 6186.51,-197.5 6192.51,-191.5 6198.51,-191.5 6198.51,-191.5 6228.51,-191.5 6228.51,-191.5 6234.51,-191.5 6240.51,-197.5 6240.51,-203.5 6240.51,-203.5 6240.51,-215.5 6240.51,-215.5 6240.51,-221.5 6234.51,-227.5 6228.51,-227.5"/>
<text text-anchor="middle" x="6213.51" y="-205.05" font-family="Helvetica,sans-Serif" font-size="11.00">Risk</text>
</g>
<!-- n_CommercialRisk&#45;&gt;n_Risk -->
<g id="edge11" class="edge">
<title>n_CommercialRisk&#45;&gt;n_Risk</title>
<path fill="none" stroke="#64748b" d="M6057.13,-286.96C6074.8,-276.53 6098.06,-263.23 6119.26,-252.5 6138.52,-242.75 6160.54,-232.86 6178.45,-225.14"/>
<polygon fill="#64748b" stroke="#64748b" points="6179.11,-227.71 6184.97,-222.35 6177.05,-222.89 6179.11,-227.71"/>
<text text-anchor="middle" x="6142.89" y="-253.7" font-family="Helvetica,sans-Serif" font-size="9.00">subClassOf</text>
</g>
<!-- n_ComplianceClause -->
<g id="node13" class="node">
<title>n_ComplianceClause</title>
<path fill="#f8fafc" stroke="#64748b" d="M4258.65,-227.5C4258.65,-227.5 4180.38,-227.5 4180.38,-227.5 4174.38,-227.5 4168.38,-221.5 4168.38,-215.5 4168.38,-215.5 4168.38,-203.5 4168.38,-203.5 4168.38,-197.5 4174.38,-191.5 4180.38,-191.5 4180.38,-191.5 4258.65,-191.5 4258.65,-191.5 4264.65,-191.5 4270.65,-197.5 4270.65,-203.5 4270.65,-203.5 4270.65,-215.5 4270.65,-215.5 4270.65,-221.5 4264.65,-227.5 4258.65,-227.5"/>
<text text-anchor="middle" x="4219.51" y="-205.05" font-family="Helvetica,sans-Serif" font-size="11.00">Compliance clause</text>
</g>
<!-- n_ComplianceClause&#45;&gt;n_Clause -->
<g id="edge12" class="edge">
<title>n_ComplianceClause&#45;&gt;n_Clause</title>
<path fill="none" stroke="#64748b" d="M4270.92,-195.82C4277.82,-194.28 4284.83,-192.79 4291.51,-191.5 4487.62,-153.58 4725.9,-127.44 4815.31,-118.32"/>
<polygon fill="#64748b" stroke="#64748b" points="4815.54,-120.94 4822.73,-117.57 4815.01,-115.71 4815.54,-120.94"/>
<text text-anchor="middle" x="4514.37" y="-157.95" font-family="Helvetica,sans-Serif" font-size="9.00">subClassOf</text>
</g>
<!-- n_ComplianceObligation -->
<g id="node14" class="node">
<title>n_ComplianceObligation</title>
<path fill="#f8fafc" stroke="#64748b" d="M2404.15,-227.5C2404.15,-227.5 2310.88,-227.5 2310.88,-227.5 2304.88,-227.5 2298.88,-221.5 2298.88,-215.5 2298.88,-215.5 2298.88,-203.5 2298.88,-203.5 2298.88,-197.5 2304.88,-191.5 2310.88,-191.5 2310.88,-191.5 2404.15,-191.5 2404.15,-191.5 2410.15,-191.5 2416.15,-197.5 2416.15,-203.5 2416.15,-203.5 2416.15,-215.5 2416.15,-215.5 2416.15,-221.5 2410.15,-227.5 2404.15,-227.5"/>
<text text-anchor="middle" x="2357.51" y="-205.05" font-family="Helvetica,sans-Serif" font-size="11.00">Compliance obligation</text>
</g>
<!-- n_ComplianceObligation&#45;&gt;n_Obligation -->
<g id="edge13" class="edge">
<title>n_ComplianceObligation&#45;&gt;n_Obligation</title>
<path fill="none" stroke="#64748b" d="M2416.3,-191.17C2450.9,-181.03 2495.53,-168.04 2535.26,-156.75 2575.3,-145.38 2585.77,-144.13 2625.51,-131.75 2628.85,-130.71 2632.3,-129.59 2635.76,-128.45"/>
<polygon fill="#64748b" stroke="#64748b" points="2636.59,-130.94 2642.85,-126.06 2634.91,-125.97 2636.59,-130.94"/>
<text text-anchor="middle" x="2558.89" y="-157.95" font-family="Helvetica,sans-Serif" font-size="9.00">subClassOf</text>
</g>
<!-- n_ComplianceRisk -->
<g id="node15" class="node">
<title>n_ComplianceRisk</title>
<path fill="#f8fafc" stroke="#64748b" d="M6188.52,-323.25C6188.52,-323.25 6124.5,-323.25 6124.5,-323.25 6118.5,-323.25 6112.5,-317.25 6112.5,-311.25 6112.5,-311.25 6112.5,-299.25 6112.5,-299.25 6112.5,-293.25 6118.5,-287.25 6124.5,-287.25 6124.5,-287.25 6188.52,-287.25 6188.52,-287.25 6194.52,-287.25 6200.52,-293.25 6200.52,-299.25 6200.52,-299.25 6200.52,-311.25 6200.52,-311.25 6200.52,-317.25 6194.52,-323.25 6188.52,-323.25"/>
<text text-anchor="middle" x="6156.51" y="-300.8" font-family="Helvetica,sans-Serif" font-size="11.00">Compliance risk</text>
</g>
<!-- n_ComplianceRisk&#45;&gt;n_Risk -->
<g id="edge14" class="edge">
<title>n_ComplianceRisk&#45;&gt;n_Risk</title>
<path fill="none" stroke="#64748b" d="M6164.12,-287.06C6168.9,-276.79 6175.43,-263.62 6182.26,-252.5 6185.87,-246.62 6190.09,-240.53 6194.24,-234.88"/>
<polygon fill="#64748b" stroke="#64748b" points="6196.09,-236.78 6198.49,-229.21 6191.89,-233.63 6196.09,-236.78"/>
<text text-anchor="middle" x="6205.89" y="-253.7" font-family="Helvetica,sans-Serif" font-size="9.00">subClassOf</text>
</g>
<!-- n_Condition -->
<g id="node16" class="node">
<title>n_Condition</title>
<path fill="#f8fafc" stroke="#64748b" d="M2593.15,-131.75C2593.15,-131.75 2559.88,-131.75 2559.88,-131.75 2553.88,-131.75 2547.88,-125.75 2547.88,-119.75 2547.88,-119.75 2547.88,-107.75 2547.88,-107.75 2547.88,-101.75 2553.88,-95.75 2559.88,-95.75 2559.88,-95.75 2593.15,-95.75 2593.15,-95.75 2599.15,-95.75 2605.15,-101.75 2605.15,-107.75 2605.15,-107.75 2605.15,-119.75 2605.15,-119.75 2605.15,-125.75 2599.15,-131.75 2593.15,-131.75"/>
<text text-anchor="middle" x="2576.51" y="-109.3" font-family="Helvetica,sans-Serif" font-size="11.00">Condition</text>
</g>
<!-- n_Condition&#45;&gt;n_ContractComponent -->
<g id="edge15" class="edge">
<title>n_Condition&#45;&gt;n_ContractComponent</title>
<path fill="none" stroke="#64748b" d="M2605.62,-102.16C2611.83,-99.98 2618.37,-97.74 2624.51,-95.75 2676.41,-78.91 2689.36,-74.39 2742.26,-61 2786.97,-49.69 2837.87,-38.95 2876.9,-31.16"/>
<polygon fill="#64748b" stroke="#64748b" points="2877.22,-33.77 2884.06,-29.74 2876.2,-28.62 2877.22,-33.77"/>
<text text-anchor="middle" x="2765.89" y="-62.2" font-family="Helvetica,sans-Serif" font-size="9.00">subClassOf</text>
</g>
<!-- n_ConfidentialInformation -->
<g id="node17" class="node">
<title>n_ConfidentialInformation</title>
<path fill="#f8fafc" stroke="#64748b" d="M7034.9,-227.5C7034.9,-227.5 6934.12,-227.5 6934.12,-227.5 6928.12,-227.5 6922.12,-221.5 6922.12,-215.5 6922.12,-215.5 6922.12,-203.5 6922.12,-203.5 6922.12,-197.5 6928.12,-191.5 6934.12,-191.5 6934.12,-191.5 7034.9,-191.5 7034.9,-191.5 7040.9,-191.5 7046.9,-197.5 7046.9,-203.5 7046.9,-203.5 7046.9,-215.5 7046.9,-215.5 7046.9,-221.5 7040.9,-227.5 7034.9,-227.5"/>
<text text-anchor="middle" x="6984.51" y="-205.05" font-family="Helvetica,sans-Serif" font-size="11.00">Confidential information</text>
</g>
<!-- n_Resource -->
<g id="node67" class="node">
<title>n_Resource</title>
<path fill="#f8fafc" stroke="#64748b" d="M6684.52,-131.75C6684.52,-131.75 6650.5,-131.75 6650.5,-131.75 6644.5,-131.75 6638.5,-125.75 6638.5,-119.75 6638.5,-119.75 6638.5,-107.75 6638.5,-107.75 6638.5,-101.75 6644.5,-95.75 6650.5,-95.75 6650.5,-95.75 6684.52,-95.75 6684.52,-95.75 6690.52,-95.75 6696.52,-101.75 6696.52,-107.75 6696.52,-107.75 6696.52,-119.75 6696.52,-119.75 6696.52,-125.75 6690.52,-131.75 6684.52,-131.75"/>
<text text-anchor="middle" x="6667.51" y="-109.3" font-family="Helvetica,sans-Serif" font-size="11.00">Resource</text>
</g>
<!-- n_ConfidentialInformation&#45;&gt;n_Resource -->
<g id="edge16" class="edge">
<title>n_ConfidentialInformation&#45;&gt;n_Resource</title>
<path fill="none" stroke="#64748b" d="M6945.87,-191.09C6920.54,-180.16 6886.51,-166.36 6855.51,-156.75 6804.5,-140.93 6743.97,-128.51 6705.65,-121.39"/>
<polygon fill="#64748b" stroke="#64748b" points="6706.22,-118.83 6698.37,-120.06 6705.27,-123.99 6706.22,-118.83"/>
<text text-anchor="middle" x="6907.97" y="-157.95" font-family="Helvetica,sans-Serif" font-size="9.00">subClassOf</text>
</g>
<!-- n_ConfidentialityClause -->
<g id="node18" class="node">
<title>n_ConfidentialityClause</title>
<path fill="#f8fafc" stroke="#64748b" d="M4411.9,-227.5C4411.9,-227.5 4323.12,-227.5 4323.12,-227.5 4317.12,-227.5 4311.12,-221.5 4311.12,-215.5 4311.12,-215.5 4311.12,-203.5 4311.12,-203.5 4311.12,-197.5 4317.12,-191.5 4323.12,-191.5 4323.12,-191.5 4411.9,-191.5 4411.9,-191.5 4417.9,-191.5 4423.9,-197.5 4423.9,-203.5 4423.9,-203.5 4423.9,-215.5 4423.9,-215.5 4423.9,-221.5 4417.9,-227.5 4411.9,-227.5"/>
<text text-anchor="middle" x="4367.51" y="-205.05" font-family="Helvetica,sans-Serif" font-size="11.00">Confidentiality clause</text>
</g>
<!-- n_ConfidentialityClause&#45;&gt;n_Clause -->
<g id="edge17" class="edge">
<title>n_ConfidentialityClause&#45;&gt;n_Clause</title>
<path fill="none" stroke="#64748b" d="M4424.25,-195.82C4431.07,-194.34 4437.94,-192.87 4444.51,-191.5 4581.19,-162.9 4744.71,-133.53 4815.7,-121.01"/>
<polygon fill="#64748b" stroke="#64748b" points="4815.86,-123.65 4822.8,-119.76 4814.95,-118.48 4815.86,-123.65"/>
<text text-anchor="middle" x="4635.5" y="-157.95" font-family="Helvetica,sans-Serif" font-size="9.00">subClassOf</text>
</g>
<!-- n_ConfidentialityObligation -->
<g id="node19" class="node">
<title>n_ConfidentialityObligation</title>
<path fill="#f8fafc" stroke="#64748b" d="M2572.4,-227.5C2572.4,-227.5 2468.62,-227.5 2468.62,-227.5 2462.62,-227.5 2456.62,-221.5 2456.62,-215.5 2456.62,-215.5 2456.62,-203.5 2456.62,-203.5 2456.62,-197.5 2462.62,-191.5 2468.62,-191.5 2468.62,-191.5 2572.4,-191.5 2572.4,-191.5 2578.4,-191.5 2584.4,-197.5 2584.4,-203.5 2584.4,-203.5 2584.4,-215.5 2584.4,-215.5 2584.4,-221.5 2578.4,-227.5 2572.4,-227.5"/>
<text text-anchor="middle" x="2520.51" y="-205.05" font-family="Helvetica,sans-Serif" font-size="11.00">Confidentiality obligation</text>
</g>
<!-- n_ConfidentialityObligation&#45;&gt;n_Obligation -->
<g id="edge18" class="edge">
<title>n_ConfidentialityObligation&#45;&gt;n_Obligation</title>
<path fill="none" stroke="#64748b" d="M2549.12,-191.09C2574.32,-175.74 2611.16,-153.32 2638.39,-136.74"/>
<polygon fill="#64748b" stroke="#64748b" points="2639.46,-139.16 2644.5,-133.02 2636.73,-134.67 2639.46,-139.16"/>
<text text-anchor="middle" x="2625.75" y="-157.95" font-family="Helvetica,sans-Serif" font-size="9.00">subClassOf</text>
</g>
<!-- n_Consideration -->
<g id="node20" class="node">
<title>n_Consideration</title>
<path fill="#f8fafc" stroke="#64748b" d="M6346.65,-227.5C6346.65,-227.5 6292.38,-227.5 6292.38,-227.5 6286.38,-227.5 6280.38,-221.5 6280.38,-215.5 6280.38,-215.5 6280.38,-203.5 6280.38,-203.5 6280.38,-197.5 6286.38,-191.5 6292.38,-191.5 6292.38,-191.5 6346.65,-191.5 6346.65,-191.5 6352.65,-191.5 6358.65,-197.5 6358.65,-203.5 6358.65,-203.5 6358.65,-215.5 6358.65,-215.5 6358.65,-221.5 6352.65,-227.5 6346.65,-227.5"/>
<text text-anchor="middle" x="6319.51" y="-205.05" font-family="Helvetica,sans-Serif" font-size="11.00">Consideration</text>
</g>
<!-- n_Consideration&#45;&gt;n_Resource -->
<g id="edge19" class="edge">
<title>n_Consideration&#45;&gt;n_Resource</title>
<path fill="none" stroke="#64748b" d="M6359.02,-191.99C6386.71,-180.89 6424.79,-166.54 6459.26,-156.75 6517.76,-140.13 6587.3,-127.49 6629.39,-120.61"/>
<polygon fill="#64748b" stroke="#64748b" points="6629.72,-123.21 6636.7,-119.42 6628.88,-118.03 6629.72,-123.21"/>
<text text-anchor="middle" x="6482.89" y="-157.95" font-family="Helvetica,sans-Serif" font-size="9.00">subClassOf</text>
</g>
<!-- n_ContractFamily -->
<g id="node23" class="node">
<title>n_ContractFamily</title>
<path fill="#f8fafc" stroke="#64748b" d="M7135.27,-323.25C7135.27,-323.25 7075.75,-323.25 7075.75,-323.25 7069.75,-323.25 7063.75,-317.25 7063.75,-311.25 7063.75,-311.25 7063.75,-299.25 7063.75,-299.25 7063.75,-293.25 7069.75,-287.25 7075.75,-287.25 7075.75,-287.25 7135.27,-287.25 7135.27,-287.25 7141.27,-287.25 7147.27,-293.25 7147.27,-299.25 7147.27,-299.25 7147.27,-311.25 7147.27,-311.25 7147.27,-317.25 7141.27,-323.25 7135.27,-323.25"/>
<text text-anchor="middle" x="7105.51" y="-300.8" font-family="Helvetica,sans-Serif" font-size="11.00">Contract family</text>
</g>
<!-- n_ContractTerm -->
<g id="node24" class="node">
<title>n_ContractTerm</title>
<path fill="#f8fafc" stroke="#64748b" d="M1795.27,-131.75C1795.27,-131.75 1741.75,-131.75 1741.75,-131.75 1735.75,-131.75 1729.75,-125.75 1729.75,-119.75 1729.75,-119.75 1729.75,-107.75 1729.75,-107.75 1729.75,-101.75 1735.75,-95.75 1741.75,-95.75 1741.75,-95.75 1795.27,-95.75 1795.27,-95.75 1801.27,-95.75 1807.27,-101.75 1807.27,-107.75 1807.27,-107.75 1807.27,-119.75 1807.27,-119.75 1807.27,-125.75 1801.27,-131.75 1795.27,-131.75"/>
<text text-anchor="middle" x="1768.51" y="-109.3" font-family="Helvetica,sans-Serif" font-size="11.00">Contract term</text>
</g>
<!-- n_ContractTerm&#45;&gt;n_ContractComponent -->
<g id="edge20" class="edge">
<title>n_ContractTerm&#45;&gt;n_ContractComponent</title>
<path fill="none" stroke="#64748b" d="M1807.5,-109.63C1978.52,-95.95 2663.16,-41.19 2876.62,-24.11"/>
<polygon fill="#64748b" stroke="#64748b" points="2876.75,-26.73 2884.01,-23.52 2876.33,-21.5 2876.75,-26.73"/>
<text text-anchor="middle" x="2413.28" y="-62.2" font-family="Helvetica,sans-Serif" font-size="9.00">subClassOf</text>
</g>
<!-- n_Currency -->
<g id="node25" class="node">
<title>n_Currency</title>
<path fill="#f8fafc" stroke="#64748b" d="M6442.4,-227.5C6442.4,-227.5 6410.62,-227.5 6410.62,-227.5 6404.62,-227.5 6398.62,-221.5 6398.62,-215.5 6398.62,-215.5 6398.62,-203.5 6398.62,-203.5 6398.62,-197.5 6404.62,-191.5 6410.62,-191.5 6410.62,-191.5 6442.4,-191.5 6442.4,-191.5 6448.4,-191.5 6454.4,-197.5 6454.4,-203.5 6454.4,-203.5 6454.4,-215.5 6454.4,-215.5 6454.4,-221.5 6448.4,-227.5 6442.4,-227.5"/>
<text text-anchor="middle" x="6426.51" y="-205.05" font-family="Helvetica,sans-Serif" font-size="11.00">Currency</text>
</g>
<!-- n_Currency&#45;&gt;n_Resource -->
<g id="edge21" class="edge">
<title>n_Currency&#45;&gt;n_Resource</title>
<path fill="none" stroke="#64748b" d="M6454.58,-194.36C6476.94,-183.38 6509.2,-168.15 6538.26,-156.75 6568.55,-144.86 6603.71,-133.6 6629.71,-125.73"/>
<polygon fill="#64748b" stroke="#64748b" points="6630.28,-128.3 6636.71,-123.63 6628.77,-123.27 6630.28,-128.3"/>
<text text-anchor="middle" x="6561.89" y="-157.95" font-family="Helvetica,sans-Serif" font-size="9.00">subClassOf</text>
</g>
<!-- n_DataProtectionClause -->
<g id="node26" class="node">
<title>n_DataProtectionClause</title>
<path fill="#f8fafc" stroke="#64748b" d="M4570.9,-227.5C4570.9,-227.5 4476.12,-227.5 4476.12,-227.5 4470.12,-227.5 4464.12,-221.5 4464.12,-215.5 4464.12,-215.5 4464.12,-203.5 4464.12,-203.5 4464.12,-197.5 4470.12,-191.5 4476.12,-191.5 4476.12,-191.5 4570.9,-191.5 4570.9,-191.5 4576.9,-191.5 4582.9,-197.5 4582.9,-203.5 4582.9,-203.5 4582.9,-215.5 4582.9,-215.5 4582.9,-221.5 4576.9,-227.5 4570.9,-227.5"/>
<text text-anchor="middle" x="4523.51" y="-205.05" font-family="Helvetica,sans-Serif" font-size="11.00">Data protection clause</text>
</g>
<!-- n_DataProtectionClause&#45;&gt;n_Clause -->
<g id="edge22" class="edge">
<title>n_DataProtectionClause&#45;&gt;n_Clause</title>
<path fill="none" stroke="#64748b" d="M4583.29,-191.41C4651.17,-172.01 4759.72,-140.99 4815.63,-125"/>
<polygon fill="#64748b" stroke="#64748b" points="4816.2,-127.57 4822.69,-122.99 4814.75,-122.53 4816.2,-127.57"/>
<text text-anchor="middle" x="4720.97" y="-157.95" font-family="Helvetica,sans-Serif" font-size="9.00">subClassOf</text>
</g>
<!-- n_Deliverable -->
<g id="node27" class="node">
<title>n_Deliverable</title>
<path fill="#f8fafc" stroke="#64748b" d="M2961.27,-131.75C2961.27,-131.75 2919.75,-131.75 2919.75,-131.75 2913.75,-131.75 2907.75,-125.75 2907.75,-119.75 2907.75,-119.75 2907.75,-107.75 2907.75,-107.75 2907.75,-101.75 2913.75,-95.75 2919.75,-95.75 2919.75,-95.75 2961.27,-95.75 2961.27,-95.75 2967.27,-95.75 2973.27,-101.75 2973.27,-107.75 2973.27,-107.75 2973.27,-119.75 2973.27,-119.75 2973.27,-125.75 2967.27,-131.75 2961.27,-131.75"/>
<text text-anchor="middle" x="2940.51" y="-109.3" font-family="Helvetica,sans-Serif" font-size="11.00">Deliverable</text>
</g>
<!-- n_Deliverable&#45;&gt;n_ContractComponent -->
<g id="edge23" class="edge">
<title>n_Deliverable&#45;&gt;n_ContractComponent</title>
<path fill="none" stroke="#64748b" d="M2940.51,-95.55C2940.51,-81.5 2940.51,-61.41 2940.51,-45.33"/>
<polygon fill="#64748b" stroke="#64748b" points="2943.14,-45.42 2940.51,-37.92 2937.89,-45.42 2943.14,-45.42"/>
<text text-anchor="middle" x="2964.14" y="-62.2" font-family="Helvetica,sans-Serif" font-size="9.00">subClassOf</text>
</g>
<!-- n_DeliveryEvent -->
<g id="node28" class="node">
<title>n_DeliveryEvent</title>
<path fill="#f8fafc" stroke="#64748b" d="M1157.4,-323.25C1157.4,-323.25 1101.63,-323.25 1101.63,-323.25 1095.63,-323.25 1089.63,-317.25 1089.63,-311.25 1089.63,-311.25 1089.63,-299.25 1089.63,-299.25 1089.63,-293.25 1095.63,-287.25 1101.63,-287.25 1101.63,-287.25 1157.4,-287.25 1157.4,-287.25 1163.4,-287.25 1169.4,-293.25 1169.4,-299.25 1169.4,-299.25 1169.4,-311.25 1169.4,-311.25 1169.4,-317.25 1163.4,-323.25 1157.4,-323.25"/>
<text text-anchor="middle" x="1129.51" y="-300.8" font-family="Helvetica,sans-Serif" font-size="11.00">Delivery event</text>
</g>
<!-- n_DeliveryEvent&#45;&gt;n_ContractEvent -->
<g id="edge24" class="edge">
<title>n_DeliveryEvent&#45;&gt;n_ContractEvent</title>
<path fill="none" stroke="#64748b" d="M1155.3,-286.85C1171.56,-276.26 1193.2,-262.82 1213.26,-252.5 1229.56,-244.12 1247.91,-236.05 1264.42,-229.27"/>
<polygon fill="#64748b" stroke="#64748b" points="1265,-231.87 1270.96,-226.61 1263.02,-227 1265,-231.87"/>
<text text-anchor="middle" x="1236.89" y="-253.7" font-family="Helvetica,sans-Serif" font-size="9.00">subClassOf</text>
</g>
<!-- n_DeliveryObligation -->
<g id="node29" class="node">
<title>n_DeliveryObligation</title>
<path fill="#f8fafc" stroke="#64748b" d="M2712.15,-227.5C2712.15,-227.5 2636.88,-227.5 2636.88,-227.5 2630.88,-227.5 2624.88,-221.5 2624.88,-215.5 2624.88,-215.5 2624.88,-203.5 2624.88,-203.5 2624.88,-197.5 2630.88,-191.5 2636.88,-191.5 2636.88,-191.5 2712.15,-191.5 2712.15,-191.5 2718.15,-191.5 2724.15,-197.5 2724.15,-203.5 2724.15,-203.5 2724.15,-215.5 2724.15,-215.5 2724.15,-221.5 2718.15,-227.5 2712.15,-227.5"/>
<text text-anchor="middle" x="2674.51" y="-205.05" font-family="Helvetica,sans-Serif" font-size="11.00">Delivery obligation</text>
</g>
<!-- n_DeliveryObligation&#45;&gt;n_Obligation -->
<g id="edge25" class="edge">
<title>n_DeliveryObligation&#45;&gt;n_Obligation</title>
<path fill="none" stroke="#64748b" d="M2674.51,-191.3C2674.51,-177.25 2674.51,-157.16 2674.51,-141.08"/>
<polygon fill="#64748b" stroke="#64748b" points="2677.14,-141.17 2674.51,-133.67 2671.89,-141.17 2677.14,-141.17"/>
<text text-anchor="middle" x="2698.14" y="-157.95" font-family="Helvetica,sans-Serif" font-size="9.00">subClassOf</text>
</g>
<!-- n_DisputeResolutionClause -->
<g id="node30" class="node">
<title>n_DisputeResolutionClause</title>
<path fill="#f8fafc" stroke="#64748b" d="M4742.27,-227.5C4742.27,-227.5 4634.75,-227.5 4634.75,-227.5 4628.75,-227.5 4622.75,-221.5 4622.75,-215.5 4622.75,-215.5 4622.75,-203.5 4622.75,-203.5 4622.75,-197.5 4628.75,-191.5 4634.75,-191.5 4634.75,-191.5 4742.27,-191.5 4742.27,-191.5 4748.27,-191.5 4754.27,-197.5 4754.27,-203.5 4754.27,-203.5 4754.27,-215.5 4754.27,-215.5 4754.27,-221.5 4748.27,-227.5 4742.27,-227.5"/>
<text text-anchor="middle" x="4688.51" y="-205.05" font-family="Helvetica,sans-Serif" font-size="11.00">Dispute resolution clause</text>
</g>
<!-- n_DisputeResolutionClause&#45;&gt;n_Clause -->
<g id="edge26" class="edge">
<title>n_DisputeResolutionClause&#45;&gt;n_Clause</title>
<path fill="none" stroke="#64748b" d="M4718.79,-191.09C4746.51,-175.14 4787.52,-151.55 4816.61,-134.82"/>
<polygon fill="#64748b" stroke="#64748b" points="4817.6,-137.28 4822.79,-131.27 4814.98,-132.73 4817.6,-137.28"/>
<text text-anchor="middle" x="4798.52" y="-157.95" font-family="Helvetica,sans-Serif" font-size="9.00">subClassOf</text>
</g>
<!-- n_DraftState -->
<g id="node31" class="node">
<title>n_DraftState</title>
<path fill="#f8fafc" stroke="#64748b" d="M281.4,-323.25C281.4,-323.25 243.63,-323.25 243.63,-323.25 237.63,-323.25 231.63,-317.25 231.63,-311.25 231.63,-311.25 231.63,-299.25 231.63,-299.25 231.63,-293.25 237.63,-287.25 243.63,-287.25 243.63,-287.25 281.4,-287.25 281.4,-287.25 287.4,-287.25 293.4,-293.25 293.4,-299.25 293.4,-299.25 293.4,-311.25 293.4,-311.25 293.4,-317.25 287.4,-323.25 281.4,-323.25"/>
<text text-anchor="middle" x="262.51" y="-300.8" font-family="Helvetica,sans-Serif" font-size="11.00">Draft state</text>
</g>
<!-- n_DraftState&#45;&gt;n_LifecycleState -->
<g id="edge27" class="edge">
<title>n_DraftState&#45;&gt;n_LifecycleState</title>
<path fill="none" stroke="#64748b" d="M279.75,-286.9C290.29,-276.56 304.2,-263.39 317.26,-252.5 325.17,-245.91 334.01,-239.14 342.34,-233.02"/>
<polygon fill="#64748b" stroke="#64748b" points="343.73,-235.25 348.26,-228.72 340.65,-231.01 343.73,-235.25"/>
<text text-anchor="middle" x="340.89" y="-253.7" font-family="Helvetica,sans-Serif" font-size="9.00">subClassOf</text>
</g>
<!-- n_EffectiveDateTerm -->
<g id="node32" class="node">
<title>n_EffectiveDateTerm</title>
<path fill="#f8fafc" stroke="#64748b" d="M1596.27,-227.5C1596.27,-227.5 1518.75,-227.5 1518.75,-227.5 1512.75,-227.5 1506.75,-221.5 1506.75,-215.5 1506.75,-215.5 1506.75,-203.5 1506.75,-203.5 1506.75,-197.5 1512.75,-191.5 1518.75,-191.5 1518.75,-191.5 1596.27,-191.5 1596.27,-191.5 1602.27,-191.5 1608.27,-197.5 1608.27,-203.5 1608.27,-203.5 1608.27,-215.5 1608.27,-215.5 1608.27,-221.5 1602.27,-227.5 1596.27,-227.5"/>
<text text-anchor="middle" x="1557.51" y="-205.05" font-family="Helvetica,sans-Serif" font-size="11.00">Effective date term</text>
</g>
<!-- n_EffectiveDateTerm&#45;&gt;n_ContractTerm -->
<g id="edge28" class="edge">
<title>n_EffectiveDateTerm&#45;&gt;n_ContractTerm</title>
<path fill="none" stroke="#64748b" d="M1596.7,-191.09C1632.09,-175.37 1684.2,-152.21 1721.75,-135.53"/>
<polygon fill="#64748b" stroke="#64748b" points="1722.36,-138.13 1728.14,-132.69 1720.22,-133.33 1722.36,-138.13"/>
<text text-anchor="middle" x="1692.96" y="-157.95" font-family="Helvetica,sans-Serif" font-size="9.00">subClassOf</text>
</g>
<!-- n_ExecutedState -->
<g id="node33" class="node">
<title>n_ExecutedState</title>
<path fill="#f8fafc" stroke="#64748b" d="M403.9,-323.25C403.9,-323.25 345.13,-323.25 345.13,-323.25 339.13,-323.25 333.13,-317.25 333.13,-311.25 333.13,-311.25 333.13,-299.25 333.13,-299.25 333.13,-293.25 339.13,-287.25 345.13,-287.25 345.13,-287.25 403.9,-287.25 403.9,-287.25 409.9,-287.25 415.9,-293.25 415.9,-299.25 415.9,-299.25 415.9,-311.25 415.9,-311.25 415.9,-317.25 409.9,-323.25 403.9,-323.25"/>
<text text-anchor="middle" x="374.51" y="-300.8" font-family="Helvetica,sans-Serif" font-size="11.00">Executed state</text>
</g>
<!-- n_ExecutedState&#45;&gt;n_LifecycleState -->
<g id="edge29" class="edge">
<title>n_ExecutedState&#45;&gt;n_LifecycleState</title>
<path fill="none" stroke="#64748b" d="M374.51,-287.05C374.51,-273 374.51,-252.91 374.51,-236.83"/>
<polygon fill="#64748b" stroke="#64748b" points="377.14,-236.92 374.51,-229.42 371.89,-236.92 377.14,-236.92"/>
<text text-anchor="middle" x="398.14" y="-253.7" font-family="Helvetica,sans-Serif" font-size="9.00">subClassOf</text>
</g>
<!-- n_ExecutionEvent -->
<g id="node34" class="node">
<title>n_ExecutionEvent</title>
<path fill="#f8fafc" stroke="#64748b" d="M1285.52,-323.25C1285.52,-323.25 1221.5,-323.25 1221.5,-323.25 1215.5,-323.25 1209.5,-317.25 1209.5,-311.25 1209.5,-311.25 1209.5,-299.25 1209.5,-299.25 1209.5,-293.25 1215.5,-287.25 1221.5,-287.25 1221.5,-287.25 1285.52,-287.25 1285.52,-287.25 1291.52,-287.25 1297.52,-293.25 1297.52,-299.25 1297.52,-299.25 1297.52,-311.25 1297.52,-311.25 1297.52,-317.25 1291.52,-323.25 1285.52,-323.25"/>
<text text-anchor="middle" x="1253.51" y="-300.8" font-family="Helvetica,sans-Serif" font-size="11.00">Execution event</text>
</g>
<!-- n_ExecutionEvent&#45;&gt;n_ContractEvent -->
<g id="edge30" class="edge">
<title>n_ExecutionEvent&#45;&gt;n_ContractEvent</title>
<path fill="none" stroke="#64748b" d="M1259.62,-286.79C1263.62,-276.42 1269.38,-263.24 1276.26,-252.5 1280.27,-246.25 1285.19,-240 1290.12,-234.3"/>
<polygon fill="#64748b" stroke="#64748b" points="1291.8,-236.36 1294.86,-229.03 1287.9,-232.85 1291.8,-236.36"/>
<text text-anchor="middle" x="1299.89" y="-253.7" font-family="Helvetica,sans-Serif" font-size="9.00">subClassOf</text>
</g>
<!-- n_ExpirationDateTerm -->
<g id="node35" class="node">
<title>n_ExpirationDateTerm</title>
<path fill="#f8fafc" stroke="#64748b" d="M1744.65,-227.5C1744.65,-227.5 1660.38,-227.5 1660.38,-227.5 1654.38,-227.5 1648.38,-221.5 1648.38,-215.5 1648.38,-215.5 1648.38,-203.5 1648.38,-203.5 1648.38,-197.5 1654.38,-191.5 1660.38,-191.5 1660.38,-191.5 1744.65,-191.5 1744.65,-191.5 1750.65,-191.5 1756.65,-197.5 1756.65,-203.5 1756.65,-203.5 1756.65,-215.5 1756.65,-215.5 1756.65,-221.5 1750.65,-227.5 1744.65,-227.5"/>
<text text-anchor="middle" x="1702.51" y="-205.05" font-family="Helvetica,sans-Serif" font-size="11.00">Expiration date term</text>
</g>
<!-- n_ExpirationDateTerm&#45;&gt;n_ContractTerm -->
<g id="edge31" class="edge">
<title>n_ExpirationDateTerm&#45;&gt;n_ContractTerm</title>
<path fill="none" stroke="#64748b" d="M1713.89,-191.11C1720.57,-181 1729.26,-168.06 1737.26,-156.75 1741.32,-151.01 1745.78,-144.91 1750.02,-139.18"/>
<polygon fill="#64748b" stroke="#64748b" points="1751.96,-140.98 1754.34,-133.4 1747.75,-137.84 1751.96,-140.98"/>
<text text-anchor="middle" x="1760.89" y="-157.95" font-family="Helvetica,sans-Serif" font-size="9.00">subClassOf</text>
</g>
<!-- n_ExpiredState -->
<g id="node36" class="node">
<title>n_ExpiredState</title>
<path fill="#f8fafc" stroke="#64748b" d="M518.77,-323.25C518.77,-323.25 468.25,-323.25 468.25,-323.25 462.25,-323.25 456.25,-317.25 456.25,-311.25 456.25,-311.25 456.25,-299.25 456.25,-299.25 456.25,-293.25 462.25,-287.25 468.25,-287.25 468.25,-287.25 518.77,-287.25 518.77,-287.25 524.77,-287.25 530.77,-293.25 530.77,-299.25 530.77,-299.25 530.77,-311.25 530.77,-311.25 530.77,-317.25 524.77,-323.25 518.77,-323.25"/>
<text text-anchor="middle" x="493.51" y="-300.8" font-family="Helvetica,sans-Serif" font-size="11.00">Expired state</text>
</g>
<!-- n_ExpiredState&#45;&gt;n_LifecycleState -->
<g id="edge32" class="edge">
<title>n_ExpiredState&#45;&gt;n_LifecycleState</title>
<path fill="none" stroke="#64748b" d="M473.38,-286.92C461.37,-276.72 445.74,-263.66 431.51,-252.5 423.36,-246.1 414.39,-239.36 406.03,-233.2"/>
<polygon fill="#64748b" stroke="#64748b" points="407.7,-231.17 400.1,-228.86 404.6,-235.41 407.7,-231.17"/>
<text text-anchor="middle" x="467.21" y="-253.7" font-family="Helvetica,sans-Serif" font-size="9.00">subClassOf</text>
</g>
<!-- n_ForceMajeureClause -->
<g id="node37" class="node">
<title>n_ForceMajeureClause</title>
<path fill="#f8fafc" stroke="#64748b" d="M4897.02,-227.5C4897.02,-227.5 4806,-227.5 4806,-227.5 4800,-227.5 4794,-221.5 4794,-215.5 4794,-215.5 4794,-203.5 4794,-203.5 4794,-197.5 4800,-191.5 4806,-191.5 4806,-191.5 4897.02,-191.5 4897.02,-191.5 4903.02,-191.5 4909.02,-197.5 4909.02,-203.5 4909.02,-203.5 4909.02,-215.5 4909.02,-215.5 4909.02,-221.5 4903.02,-227.5 4897.02,-227.5"/>
<text text-anchor="middle" x="4851.51" y="-205.05" font-family="Helvetica,sans-Serif" font-size="11.00">Force majeure clause</text>
</g>
<!-- n_ForceMajeureClause&#45;&gt;n_Clause -->
<g id="edge33" class="edge">
<title>n_ForceMajeureClause&#45;&gt;n_Clause</title>
<path fill="none" stroke="#64748b" d="M4851.51,-191.3C4851.51,-177.25 4851.51,-157.16 4851.51,-141.08"/>
<polygon fill="#64748b" stroke="#64748b" points="4854.14,-141.17 4851.51,-133.67 4848.89,-141.17 4854.14,-141.17"/>
<text text-anchor="middle" x="4875.14" y="-157.95" font-family="Helvetica,sans-Serif" font-size="9.00">subClassOf</text>
</g>
<!-- n_GoverningLawClause -->
<g id="node38" class="node">
<title>n_GoverningLawClause</title>
<path fill="#f8fafc" stroke="#64748b" d="M5051.65,-227.5C5051.65,-227.5 4961.38,-227.5 4961.38,-227.5 4955.38,-227.5 4949.38,-221.5 4949.38,-215.5 4949.38,-215.5 4949.38,-203.5 4949.38,-203.5 4949.38,-197.5 4955.38,-191.5 4961.38,-191.5 4961.38,-191.5 5051.65,-191.5 5051.65,-191.5 5057.65,-191.5 5063.65,-197.5 5063.65,-203.5 5063.65,-203.5 5063.65,-215.5 5063.65,-215.5 5063.65,-221.5 5057.65,-227.5 5051.65,-227.5"/>
<text text-anchor="middle" x="5006.51" y="-205.05" font-family="Helvetica,sans-Serif" font-size="11.00">Governing law clause</text>
</g>
<!-- n_GoverningLawClause&#45;&gt;n_Clause -->
<g id="edge34" class="edge">
<title>n_GoverningLawClause&#45;&gt;n_Clause</title>
<path fill="none" stroke="#64748b" d="M4977.72,-191.09C4951.87,-175.45 4913.87,-152.47 4886.32,-135.8"/>
<polygon fill="#64748b" stroke="#64748b" points="4887.92,-133.7 4880.14,-132.07 4885.2,-138.2 4887.92,-133.7"/>
<text text-anchor="middle" x="4957.28" y="-157.95" font-family="Helvetica,sans-Serif" font-size="9.00">subClassOf</text>
</g>
<!-- n_IndemnityClause -->
<g id="node39" class="node">
<title>n_IndemnityClause</title>
<path fill="#f8fafc" stroke="#64748b" d="M5628.4,-323.25C5628.4,-323.25 5560.62,-323.25 5560.62,-323.25 5554.62,-323.25 5548.62,-317.25 5548.62,-311.25 5548.62,-311.25 5548.62,-299.25 5548.62,-299.25 5548.62,-293.25 5554.62,-287.25 5560.62,-287.25 5560.62,-287.25 5628.4,-287.25 5628.4,-287.25 5634.4,-287.25 5640.4,-293.25 5640.4,-299.25 5640.4,-299.25 5640.4,-311.25 5640.4,-311.25 5640.4,-317.25 5634.4,-323.25 5628.4,-323.25"/>
<text text-anchor="middle" x="5594.51" y="-300.8" font-family="Helvetica,sans-Serif" font-size="11.00">Indemnity clause</text>
</g>
<!-- n_LiabilityClause -->
<g id="node47" class="node">
<title>n_LiabilityClause</title>
<path fill="#f8fafc" stroke="#64748b" d="M5622.77,-227.5C5622.77,-227.5 5566.25,-227.5 5566.25,-227.5 5560.25,-227.5 5554.25,-221.5 5554.25,-215.5 5554.25,-215.5 5554.25,-203.5 5554.25,-203.5 5554.25,-197.5 5560.25,-191.5 5566.25,-191.5 5566.25,-191.5 5622.77,-191.5 5622.77,-191.5 5628.77,-191.5 5634.77,-197.5 5634.77,-203.5 5634.77,-203.5 5634.77,-215.5 5634.77,-215.5 5634.77,-221.5 5628.77,-227.5 5622.77,-227.5"/>
<text text-anchor="middle" x="5594.51" y="-205.05" font-family="Helvetica,sans-Serif" font-size="11.00">Liability clause</text>
</g>
<!-- n_IndemnityClause&#45;&gt;n_LiabilityClause -->
<g id="edge35" class="edge">
<title>n_IndemnityClause&#45;&gt;n_LiabilityClause</title>
<path fill="none" stroke="#64748b" d="M5594.51,-287.05C5594.51,-273 5594.51,-252.91 5594.51,-236.83"/>
<polygon fill="#64748b" stroke="#64748b" points="5597.14,-236.92 5594.51,-229.42 5591.89,-236.92 5597.14,-236.92"/>
<text text-anchor="middle" x="5618.14" y="-253.7" font-family="Helvetica,sans-Serif" font-size="9.00">subClassOf</text>
</g>
<!-- n_IndemnityObligation -->
<g id="node40" class="node">
<title>n_IndemnityObligation</title>
<path fill="#f8fafc" stroke="#64748b" d="M2858.9,-227.5C2858.9,-227.5 2776.12,-227.5 2776.12,-227.5 2770.12,-227.5 2764.12,-221.5 2764.12,-215.5 2764.12,-215.5 2764.12,-203.5 2764.12,-203.5 2764.12,-197.5 2770.12,-191.5 2776.12,-191.5 2776.12,-191.5 2858.9,-191.5 2858.9,-191.5 2864.9,-191.5 2870.9,-197.5 2870.9,-203.5 2870.9,-203.5 2870.9,-215.5 2870.9,-215.5 2870.9,-221.5 2864.9,-227.5 2858.9,-227.5"/>
<text text-anchor="middle" x="2817.51" y="-205.05" font-family="Helvetica,sans-Serif" font-size="11.00">Indemnity obligation</text>
</g>
<!-- n_IndemnityObligation&#45;&gt;n_Obligation -->
<g id="edge36" class="edge">
<title>n_IndemnityObligation&#45;&gt;n_Obligation</title>
<path fill="none" stroke="#64748b" d="M2790.95,-191.09C2767.67,-175.83 2733.71,-153.56 2708.46,-137.01"/>
<polygon fill="#64748b" stroke="#64748b" points="2709.91,-134.82 2702.2,-132.9 2707.03,-139.21 2709.91,-134.82"/>
<text text-anchor="middle" x="2773.92" y="-157.95" font-family="Helvetica,sans-Serif" font-size="9.00">subClassOf</text>
</g>
<!-- n_InsuranceClause -->
<g id="node41" class="node">
<title>n_InsuranceClause</title>
<path fill="#f8fafc" stroke="#64748b" d="M5183.77,-227.5C5183.77,-227.5 5115.25,-227.5 5115.25,-227.5 5109.25,-227.5 5103.25,-221.5 5103.25,-215.5 5103.25,-215.5 5103.25,-203.5 5103.25,-203.5 5103.25,-197.5 5109.25,-191.5 5115.25,-191.5 5115.25,-191.5 5183.77,-191.5 5183.77,-191.5 5189.77,-191.5 5195.77,-197.5 5195.77,-203.5 5195.77,-203.5 5195.77,-215.5 5195.77,-215.5 5195.77,-221.5 5189.77,-227.5 5183.77,-227.5"/>
<text text-anchor="middle" x="5149.51" y="-205.05" font-family="Helvetica,sans-Serif" font-size="11.00">Insurance clause</text>
</g>
<!-- n_InsuranceClause&#45;&gt;n_Clause -->
<g id="edge37" class="edge">
<title>n_InsuranceClause&#45;&gt;n_Clause</title>
<path fill="none" stroke="#64748b" d="M5102.98,-193.07C5071.32,-182.64 5028.46,-168.66 4990.51,-156.75 4955.52,-145.77 4915.42,-133.71 4887.31,-125.34"/>
<polygon fill="#64748b" stroke="#64748b" points="4888.38,-122.92 4880.44,-123.3 4886.88,-127.95 4888.38,-122.92"/>
<text text-anchor="middle" x="5044.64" y="-157.95" font-family="Helvetica,sans-Serif" font-size="9.00">subClassOf</text>
</g>
<!-- n_IntellectualProperty -->
<g id="node42" class="node">
<title>n_IntellectualProperty</title>
<path fill="#f8fafc" stroke="#64748b" d="M6588.15,-227.5C6588.15,-227.5 6506.88,-227.5 6506.88,-227.5 6500.88,-227.5 6494.88,-221.5 6494.88,-215.5 6494.88,-215.5 6494.88,-203.5 6494.88,-203.5 6494.88,-197.5 6500.88,-191.5 6506.88,-191.5 6506.88,-191.5 6588.15,-191.5 6588.15,-191.5 6594.15,-191.5 6600.15,-197.5 6600.15,-203.5 6600.15,-203.5 6600.15,-215.5 6600.15,-215.5 6600.15,-221.5 6594.15,-227.5 6588.15,-227.5"/>
<text text-anchor="middle" x="6547.51" y="-205.05" font-family="Helvetica,sans-Serif" font-size="11.00">Intellectual property</text>
</g>
<!-- n_IntellectualProperty&#45;&gt;n_Resource -->
<g id="edge38" class="edge">
<title>n_IntellectualProperty&#45;&gt;n_Resource</title>
<path fill="none" stroke="#64748b" d="M6566.45,-191.19C6577.99,-180.88 6593.18,-167.71 6607.26,-156.75 6615.75,-150.14 6625.19,-143.33 6634.03,-137.16"/>
<polygon fill="#64748b" stroke="#64748b" points="6635.36,-139.44 6640.03,-133.01 6632.37,-135.12 6635.36,-139.44"/>
<text text-anchor="middle" x="6630.89" y="-157.95" font-family="Helvetica,sans-Serif" font-size="9.00">subClassOf</text>
</g>
<!-- n_IntellectualPropertyClause -->
<g id="node43" class="node">
<title>n_IntellectualPropertyClause</title>
<path fill="#f8fafc" stroke="#64748b" d="M5363.02,-227.5C5363.02,-227.5 5248,-227.5 5248,-227.5 5242,-227.5 5236,-221.5 5236,-215.5 5236,-215.5 5236,-203.5 5236,-203.5 5236,-197.5 5242,-191.5 5248,-191.5 5248,-191.5 5363.02,-191.5 5363.02,-191.5 5369.02,-191.5 5375.02,-197.5 5375.02,-203.5 5375.02,-203.5 5375.02,-215.5 5375.02,-215.5 5375.02,-221.5 5369.02,-227.5 5363.02,-227.5"/>
<text text-anchor="middle" x="5305.51" y="-205.05" font-family="Helvetica,sans-Serif" font-size="11.00">Intellectual property clause</text>
</g>
<!-- n_IntellectualPropertyClause&#45;&gt;n_Clause -->
<g id="edge39" class="edge">
<title>n_IntellectualPropertyClause&#45;&gt;n_Clause</title>
<path fill="none" stroke="#64748b" d="M5235.62,-191.78C5190.82,-181.26 5131.36,-167.66 5078.51,-156.75 5011.31,-142.88 4932.47,-128.78 4887.61,-120.96"/>
<polygon fill="#64748b" stroke="#64748b" points="4888.17,-118.39 4880.33,-119.69 4887.27,-123.56 4888.17,-118.39"/>
<text text-anchor="middle" x="5145.72" y="-157.95" font-family="Helvetica,sans-Serif" font-size="9.00">subClassOf</text>
</g>
<!-- n_Jurisdiction -->
<g id="node44" class="node">
<title>n_Jurisdiction</title>
<path fill="#f8fafc" stroke="#64748b" d="M7239.9,-323.25C7239.9,-323.25 7199.12,-323.25 7199.12,-323.25 7193.12,-323.25 7187.12,-317.25 7187.12,-311.25 7187.12,-311.25 7187.12,-299.25 7187.12,-299.25 7187.12,-293.25 7193.12,-287.25 7199.12,-287.25 7199.12,-287.25 7239.9,-287.25 7239.9,-287.25 7245.9,-287.25 7251.9,-293.25 7251.9,-299.25 7251.9,-299.25 7251.9,-311.25 7251.9,-311.25 7251.9,-317.25 7245.9,-323.25 7239.9,-323.25"/>
<text text-anchor="middle" x="7219.51" y="-300.8" font-family="Helvetica,sans-Serif" font-size="11.00">Jurisdiction</text>
</g>
<!-- n_JurisdictionClause -->
<g id="node45" class="node">
<title>n_JurisdictionClause</title>
<path fill="#f8fafc" stroke="#64748b" d="M5501.77,-227.5C5501.77,-227.5 5427.25,-227.5 5427.25,-227.5 5421.25,-227.5 5415.25,-221.5 5415.25,-215.5 5415.25,-215.5 5415.25,-203.5 5415.25,-203.5 5415.25,-197.5 5421.25,-191.5 5427.25,-191.5 5427.25,-191.5 5501.77,-191.5 5501.77,-191.5 5507.77,-191.5 5513.77,-197.5 5513.77,-203.5 5513.77,-203.5 5513.77,-215.5 5513.77,-215.5 5513.77,-221.5 5507.77,-227.5 5501.77,-227.5"/>
<text text-anchor="middle" x="5464.51" y="-205.05" font-family="Helvetica,sans-Serif" font-size="11.00">Jurisdiction clause</text>
</g>
<!-- n_JurisdictionClause&#45;&gt;n_Clause -->
<g id="edge40" class="edge">
<title>n_JurisdictionClause&#45;&gt;n_Clause</title>
<path fill="none" stroke="#64748b" d="M5414.87,-195.75C5408.38,-194.24 5401.8,-192.78 5395.51,-191.5 5205.94,-152.96 4975.28,-127.31 4887.64,-118.32"/>
<polygon fill="#64748b" stroke="#64748b" points="4888.11,-115.73 4880.38,-117.58 4887.58,-120.95 4888.11,-115.73"/>
<text text-anchor="middle" x="5270.68" y="-157.95" font-family="Helvetica,sans-Serif" font-size="9.00">subClassOf</text>
</g>
<!-- n_LegalRisk -->
<g id="node46" class="node">
<title>n_LegalRisk</title>
<path fill="#f8fafc" stroke="#64748b" d="M6286.15,-323.25C6286.15,-323.25 6252.88,-323.25 6252.88,-323.25 6246.88,-323.25 6240.88,-317.25 6240.88,-311.25 6240.88,-311.25 6240.88,-299.25 6240.88,-299.25 6240.88,-293.25 6246.88,-287.25 6252.88,-287.25 6252.88,-287.25 6286.15,-287.25 6286.15,-287.25 6292.15,-287.25 6298.15,-293.25 6298.15,-299.25 6298.15,-299.25 6298.15,-311.25 6298.15,-311.25 6298.15,-317.25 6292.15,-323.25 6286.15,-323.25"/>
<text text-anchor="middle" x="6269.51" y="-300.8" font-family="Helvetica,sans-Serif" font-size="11.00">Legal risk</text>
</g>
<!-- n_LegalRisk&#45;&gt;n_Risk -->
<g id="edge41" class="edge">
<title>n_LegalRisk&#45;&gt;n_Risk</title>
<path fill="none" stroke="#64748b" d="M6259.24,-287.05C6250.61,-272.61 6238.16,-251.77 6228.44,-235.49"/>
<polygon fill="#64748b" stroke="#64748b" points="6230.78,-234.3 6224.68,-229.2 6226.27,-236.99 6230.78,-234.3"/>
<text text-anchor="middle" x="6266.81" y="-253.7" font-family="Helvetica,sans-Serif" font-size="9.00">subClassOf</text>
</g>
<!-- n_LiabilityClause&#45;&gt;n_Clause -->
<g id="edge42" class="edge">
<title>n_LiabilityClause&#45;&gt;n_Clause</title>
<path fill="none" stroke="#64748b" d="M5553.99,-196.47C5547.19,-194.66 5540.17,-192.93 5533.51,-191.5 5290.08,-139.31 4989.7,-121.19 4887.49,-116.29"/>
<polygon fill="#64748b" stroke="#64748b" points="4887.91,-113.68 4880.3,-115.95 4887.67,-118.92 4887.91,-113.68"/>
<text text-anchor="middle" x="5409.33" y="-157.95" font-family="Helvetica,sans-Serif" font-size="9.00">subClassOf</text>
</g>
<!-- n_NegotiationState -->
<g id="node49" class="node">
<title>n_NegotiationState</title>
<path fill="#f8fafc" stroke="#64748b" d="M651.77,-323.25C651.77,-323.25 583.25,-323.25 583.25,-323.25 577.25,-323.25 571.25,-317.25 571.25,-311.25 571.25,-311.25 571.25,-299.25 571.25,-299.25 571.25,-293.25 577.25,-287.25 583.25,-287.25 583.25,-287.25 651.77,-287.25 651.77,-287.25 657.77,-287.25 663.77,-293.25 663.77,-299.25 663.77,-299.25 663.77,-311.25 663.77,-311.25 663.77,-317.25 657.77,-323.25 651.77,-323.25"/>
<text text-anchor="middle" x="617.51" y="-300.8" font-family="Helvetica,sans-Serif" font-size="11.00">Negotiation state</text>
</g>
<!-- n_NegotiationState&#45;&gt;n_LifecycleState -->
<g id="edge43" class="edge">
<title>n_NegotiationState&#45;&gt;n_LifecycleState</title>
<path fill="none" stroke="#64748b" d="M580.48,-286.79C557.65,-276.3 527.65,-263 500.51,-252.5 475.13,-242.68 446.38,-232.99 422.75,-225.4"/>
<polygon fill="#64748b" stroke="#64748b" points="423.68,-222.94 415.74,-223.16 422.08,-227.94 423.68,-222.94"/>
<text text-anchor="middle" x="546.85" y="-253.7" font-family="Helvetica,sans-Serif" font-size="9.00">subClassOf</text>
</g>
<!-- n_NoticeClause -->
<g id="node50" class="node">
<title>n_NoticeClause</title>
<path fill="#f8fafc" stroke="#64748b" d="M5738.52,-227.5C5738.52,-227.5 5686.5,-227.5 5686.5,-227.5 5680.5,-227.5 5674.5,-221.5 5674.5,-215.5 5674.5,-215.5 5674.5,-203.5 5674.5,-203.5 5674.5,-197.5 5680.5,-191.5 5686.5,-191.5 5686.5,-191.5 5738.52,-191.5 5738.52,-191.5 5744.52,-191.5 5750.52,-197.5 5750.52,-203.5 5750.52,-203.5 5750.52,-215.5 5750.52,-215.5 5750.52,-221.5 5744.52,-227.5 5738.52,-227.5"/>
<text text-anchor="middle" x="5712.51" y="-205.05" font-family="Helvetica,sans-Serif" font-size="11.00">Notice clause</text>
</g>
<!-- n_NoticeClause&#45;&gt;n_Clause -->
<g id="edge44" class="edge">
<title>n_NoticeClause&#45;&gt;n_Clause</title>
<path fill="none" stroke="#64748b" d="M5674.31,-196.58C5667.74,-194.74 5660.96,-192.97 5654.51,-191.5 5561.41,-170.31 5537.34,-167.87 5442.51,-156.75 5233.36,-132.23 4980.78,-120.07 4887.98,-116.18"/>
<polygon fill="#64748b" stroke="#64748b" points="4888.1,-113.56 4880.5,-115.87 4887.89,-118.8 4888.1,-113.56"/>
<text text-anchor="middle" x="5543.82" y="-157.95" font-family="Helvetica,sans-Serif" font-size="9.00">subClassOf</text>
</g>
<!-- n_NoticeEvent -->
<g id="node51" class="node">
<title>n_NoticeEvent</title>
<path fill="#f8fafc" stroke="#64748b" d="M1397.27,-323.25C1397.27,-323.25 1349.75,-323.25 1349.75,-323.25 1343.75,-323.25 1337.75,-317.25 1337.75,-311.25 1337.75,-311.25 1337.75,-299.25 1337.75,-299.25 1337.75,-293.25 1343.75,-287.25 1349.75,-287.25 1349.75,-287.25 1397.27,-287.25 1397.27,-287.25 1403.27,-287.25 1409.27,-293.25 1409.27,-299.25 1409.27,-299.25 1409.27,-311.25 1409.27,-311.25 1409.27,-317.25 1403.27,-323.25 1397.27,-323.25"/>
<text text-anchor="middle" x="1373.51" y="-300.8" font-family="Helvetica,sans-Serif" font-size="11.00">Notice event</text>
</g>
<!-- n_NoticeEvent&#45;&gt;n_ContractEvent -->
<g id="edge45" class="edge">
<title>n_NoticeEvent&#45;&gt;n_ContractEvent</title>
<path fill="none" stroke="#64748b" d="M1362.51,-287.05C1353.26,-272.61 1339.93,-251.77 1329.5,-235.49"/>
<polygon fill="#64748b" stroke="#64748b" points="1331.72,-234.08 1325.46,-229.18 1327.3,-236.91 1331.72,-234.08"/>
<text text-anchor="middle" x="1368.93" y="-253.7" font-family="Helvetica,sans-Serif" font-size="9.00">subClassOf</text>
</g>
<!-- n_NoticeObligation -->
<g id="node52" class="node">
<title>n_NoticeObligation</title>
<path fill="#f8fafc" stroke="#64748b" d="M2990.02,-227.5C2990.02,-227.5 2923,-227.5 2923,-227.5 2917,-227.5 2911,-221.5 2911,-215.5 2911,-215.5 2911,-203.5 2911,-203.5 2911,-197.5 2917,-191.5 2923,-191.5 2923,-191.5 2990.02,-191.5 2990.02,-191.5 2996.02,-191.5 3002.02,-197.5 3002.02,-203.5 3002.02,-203.5 3002.02,-215.5 3002.02,-215.5 3002.02,-221.5 2996.02,-227.5 2990.02,-227.5"/>
<text text-anchor="middle" x="2956.51" y="-205.05" font-family="Helvetica,sans-Serif" font-size="11.00">Notice obligation</text>
</g>
<!-- n_NoticeObligation&#45;&gt;n_Obligation -->
<g id="edge46" class="edge">
<title>n_NoticeObligation&#45;&gt;n_Obligation</title>
<path fill="none" stroke="#64748b" d="M2910.65,-192.19C2881.24,-181.83 2842.21,-168.25 2807.51,-156.75 2775.78,-146.23 2739.59,-134.84 2712.98,-126.58"/>
<polygon fill="#64748b" stroke="#64748b" points="2714.08,-124.18 2706.14,-124.46 2712.53,-129.19 2714.08,-124.18"/>
<text text-anchor="middle" x="2859.75" y="-157.95" font-family="Helvetica,sans-Serif" font-size="9.00">subClassOf</text>
</g>
<!-- n_NoticePeriod -->
<g id="node53" class="node">
<title>n_NoticePeriod</title>
<path fill="#f8fafc" stroke="#64748b" d="M1860.15,-227.5C1860.15,-227.5 1808.88,-227.5 1808.88,-227.5 1802.88,-227.5 1796.88,-221.5 1796.88,-215.5 1796.88,-215.5 1796.88,-203.5 1796.88,-203.5 1796.88,-197.5 1802.88,-191.5 1808.88,-191.5 1808.88,-191.5 1860.15,-191.5 1860.15,-191.5 1866.15,-191.5 1872.15,-197.5 1872.15,-203.5 1872.15,-203.5 1872.15,-215.5 1872.15,-215.5 1872.15,-221.5 1866.15,-227.5 1860.15,-227.5"/>
<text text-anchor="middle" x="1834.51" y="-205.05" font-family="Helvetica,sans-Serif" font-size="11.00">Notice period</text>
</g>
<!-- n_NoticePeriod&#45;&gt;n_ContractTerm -->
<g id="edge47" class="edge">
<title>n_NoticePeriod&#45;&gt;n_ContractTerm</title>
<path fill="none" stroke="#64748b" d="M1822.4,-191.3C1812.14,-176.73 1797.3,-155.64 1785.79,-139.29"/>
<polygon fill="#64748b" stroke="#64748b" points="1788.1,-138.01 1781.63,-133.39 1783.8,-141.04 1788.1,-138.01"/>
<text text-anchor="middle" x="1827.11" y="-157.95" font-family="Helvetica,sans-Serif" font-size="9.00">subClassOf</text>
</g>
<!-- n_Obligation&#45;&gt;n_ContractComponent -->
<g id="edge48" class="edge">
<title>n_Obligation&#45;&gt;n_ContractComponent</title>
<path fill="none" stroke="#64748b" d="M2704.76,-102.09C2748.02,-86.84 2828.36,-58.53 2883.11,-39.23"/>
<polygon fill="#64748b" stroke="#64748b" points="2883.7,-41.8 2889.91,-36.84 2881.96,-36.85 2883.7,-41.8"/>
<text text-anchor="middle" x="2839.11" y="-62.2" font-family="Helvetica,sans-Serif" font-size="9.00">subClassOf</text>
</g>
<!-- n_OperationalRisk -->
<g id="node55" class="node">
<title>n_OperationalRisk</title>
<path fill="#f8fafc" stroke="#64748b" d="M6412.77,-323.25C6412.77,-323.25 6350.25,-323.25 6350.25,-323.25 6344.25,-323.25 6338.25,-317.25 6338.25,-311.25 6338.25,-311.25 6338.25,-299.25 6338.25,-299.25 6338.25,-293.25 6344.25,-287.25 6350.25,-287.25 6350.25,-287.25 6412.77,-287.25 6412.77,-287.25 6418.77,-287.25 6424.77,-293.25 6424.77,-299.25 6424.77,-299.25 6424.77,-311.25 6424.77,-311.25 6424.77,-317.25 6418.77,-323.25 6412.77,-323.25"/>
<text text-anchor="middle" x="6381.51" y="-300.8" font-family="Helvetica,sans-Serif" font-size="11.00">Operational risk</text>
</g>
<!-- n_OperationalRisk&#45;&gt;n_Risk -->
<g id="edge49" class="edge">
<title>n_OperationalRisk&#45;&gt;n_Risk</title>
<path fill="none" stroke="#64748b" d="M6356.09,-286.91C6340.36,-276.46 6319.6,-263.16 6300.51,-252.5 6283.92,-243.24 6264.98,-233.95 6249.02,-226.48"/>
<polygon fill="#64748b" stroke="#64748b" points="6250.25,-224.15 6242.35,-223.38 6248.04,-228.92 6250.25,-224.15"/>
<text text-anchor="middle" x="6340.04" y="-253.7" font-family="Helvetica,sans-Serif" font-size="9.00">subClassOf</text>
</g>
<!-- n_Payment -->
<g id="node56" class="node">
<title>n_Payment</title>
<path fill="#f8fafc" stroke="#64748b" d="M6682.65,-227.5C6682.65,-227.5 6652.38,-227.5 6652.38,-227.5 6646.38,-227.5 6640.38,-221.5 6640.38,-215.5 6640.38,-215.5 6640.38,-203.5 6640.38,-203.5 6640.38,-197.5 6646.38,-191.5 6652.38,-191.5 6652.38,-191.5 6682.65,-191.5 6682.65,-191.5 6688.65,-191.5 6694.65,-197.5 6694.65,-203.5 6694.65,-203.5 6694.65,-215.5 6694.65,-215.5 6694.65,-221.5 6688.65,-227.5 6682.65,-227.5"/>
<text text-anchor="middle" x="6667.51" y="-205.05" font-family="Helvetica,sans-Serif" font-size="11.00">Payment</text>
</g>
<!-- n_Payment&#45;&gt;n_Resource -->
<g id="edge50" class="edge">
<title>n_Payment&#45;&gt;n_Resource</title>
<path fill="none" stroke="#64748b" d="M6665.55,-191.26C6664.63,-181.2 6663.82,-168.26 6664.26,-156.75 6664.46,-151.51 6664.81,-145.9 6665.2,-140.55"/>
<polygon fill="#64748b" stroke="#64748b" points="6667.79,-141.09 6665.76,-133.41 6662.55,-140.68 6667.79,-141.09"/>
<text text-anchor="middle" x="6687.89" y="-157.95" font-family="Helvetica,sans-Serif" font-size="9.00">subClassOf</text>
</g>
<!-- n_PaymentClause -->
<g id="node57" class="node">
<title>n_PaymentClause</title>
<path fill="#f8fafc" stroke="#64748b" d="M5866.52,-227.5C5866.52,-227.5 5802.5,-227.5 5802.5,-227.5 5796.5,-227.5 5790.5,-221.5 5790.5,-215.5 5790.5,-215.5 5790.5,-203.5 5790.5,-203.5 5790.5,-197.5 5796.5,-191.5 5802.5,-191.5 5802.5,-191.5 5866.52,-191.5 5866.52,-191.5 5872.52,-191.5 5878.52,-197.5 5878.52,-203.5 5878.52,-203.5 5878.52,-215.5 5878.52,-215.5 5878.52,-221.5 5872.52,-227.5 5866.52,-227.5"/>
<text text-anchor="middle" x="5834.51" y="-205.05" font-family="Helvetica,sans-Serif" font-size="11.00">Payment clause</text>
</g>
<!-- n_PaymentClause&#45;&gt;n_Clause -->
<g id="edge51" class="edge">
<title>n_PaymentClause&#45;&gt;n_Clause</title>
<path fill="none" stroke="#64748b" d="M5790.21,-196.23C5783.63,-194.55 5776.91,-192.92 5770.51,-191.5 5685.43,-172.57 5664.06,-167.01 5577.51,-156.75 5314.06,-125.53 4993.97,-117.26 4887.71,-115.3"/>
<polygon fill="#64748b" stroke="#64748b" points="4888.03,-112.69 4880.49,-115.18 4887.94,-117.93 4888.03,-112.69"/>
<text text-anchor="middle" x="5671.88" y="-157.95" font-family="Helvetica,sans-Serif" font-size="9.00">subClassOf</text>
</g>
<!-- n_PaymentEvent -->
<g id="node58" class="node">
<title>n_PaymentEvent</title>
<path fill="#f8fafc" stroke="#64748b" d="M1521.27,-323.25C1521.27,-323.25 1461.75,-323.25 1461.75,-323.25 1455.75,-323.25 1449.75,-317.25 1449.75,-311.25 1449.75,-311.25 1449.75,-299.25 1449.75,-299.25 1449.75,-293.25 1455.75,-287.25 1461.75,-287.25 1461.75,-287.25 1521.27,-287.25 1521.27,-287.25 1527.27,-287.25 1533.27,-293.25 1533.27,-299.25 1533.27,-299.25 1533.27,-311.25 1533.27,-311.25 1533.27,-317.25 1527.27,-323.25 1521.27,-323.25"/>
<text text-anchor="middle" x="1491.51" y="-300.8" font-family="Helvetica,sans-Serif" font-size="11.00">Payment event</text>
</g>
<!-- n_PaymentEvent&#45;&gt;n_ContractEvent -->
<g id="edge52" class="edge">
<title>n_PaymentEvent&#45;&gt;n_ContractEvent</title>
<path fill="none" stroke="#64748b" d="M1463,-286.84C1445.71,-276.48 1423.08,-263.31 1402.51,-252.5 1388.98,-245.39 1374.04,-238.12 1360.33,-231.67"/>
<polygon fill="#64748b" stroke="#64748b" points="1361.69,-229.41 1353.79,-228.62 1359.47,-234.17 1361.69,-229.41"/>
<text text-anchor="middle" x="1443.46" y="-253.7" font-family="Helvetica,sans-Serif" font-size="9.00">subClassOf</text>
</g>
<!-- n_PaymentObligation -->
<g id="node59" class="node">
<title>n_PaymentObligation</title>
<path fill="#f8fafc" stroke="#64748b" d="M2122.02,-227.5C2122.02,-227.5 2043,-227.5 2043,-227.5 2037,-227.5 2031,-221.5 2031,-215.5 2031,-215.5 2031,-203.5 2031,-203.5 2031,-197.5 2037,-191.5 2043,-191.5 2043,-191.5 2122.02,-191.5 2122.02,-191.5 2128.02,-191.5 2134.02,-197.5 2134.02,-203.5 2134.02,-203.5 2134.02,-215.5 2134.02,-215.5 2134.02,-221.5 2128.02,-227.5 2122.02,-227.5"/>
<text text-anchor="middle" x="2082.51" y="-205.05" font-family="Helvetica,sans-Serif" font-size="11.00">Payment obligation</text>
</g>
<!-- n_PaymentObligation&#45;&gt;n_Obligation -->
<g id="edge53" class="edge">
<title>n_PaymentObligation&#45;&gt;n_Obligation</title>
<path fill="none" stroke="#64748b" d="M2134.41,-195.78C2140.83,-194.29 2147.31,-192.83 2153.51,-191.5 2233.91,-174.2 2253.79,-168.02 2335.26,-156.75 2463.52,-139.01 2498.88,-158.73 2625.51,-131.75 2628.88,-131.03 2632.34,-130.15 2635.78,-129.16"/>
<polygon fill="#64748b" stroke="#64748b" points="2636.42,-131.72 2642.81,-127 2634.87,-126.7 2636.42,-131.72"/>
<text text-anchor="middle" x="2358.89" y="-157.95" font-family="Helvetica,sans-Serif" font-size="9.00">subClassOf</text>
</g>
<!-- n_PersonalData -->
<g id="node60" class="node">
<title>n_PersonalData</title>
<path fill="#f8fafc" stroke="#64748b" d="M7011.65,-323.25C7011.65,-323.25 6957.38,-323.25 6957.38,-323.25 6951.38,-323.25 6945.38,-317.25 6945.38,-311.25 6945.38,-311.25 6945.38,-299.25 6945.38,-299.25 6945.38,-293.25 6951.38,-287.25 6957.38,-287.25 6957.38,-287.25 7011.65,-287.25 7011.65,-287.25 7017.65,-287.25 7023.65,-293.25 7023.65,-299.25 7023.65,-299.25 7023.65,-311.25 7023.65,-311.25 7023.65,-317.25 7017.65,-323.25 7011.65,-323.25"/>
<text text-anchor="middle" x="6984.51" y="-300.8" font-family="Helvetica,sans-Serif" font-size="11.00">Personal data</text>
</g>
<!-- n_PersonalData&#45;&gt;n_ConfidentialInformation -->
<g id="edge54" class="edge">
<title>n_PersonalData&#45;&gt;n_ConfidentialInformation</title>
<path fill="none" stroke="#64748b" d="M6984.51,-287.05C6984.51,-273 6984.51,-252.91 6984.51,-236.83"/>
<polygon fill="#64748b" stroke="#64748b" points="6987.14,-236.92 6984.51,-229.42 6981.89,-236.92 6987.14,-236.92"/>
<text text-anchor="middle" x="7008.14" y="-253.7" font-family="Helvetica,sans-Serif" font-size="9.00">subClassOf</text>
</g>
<!-- n_Product -->
<g id="node61" class="node">
<title>n_Product</title>
<path fill="#f8fafc" stroke="#64748b" d="M6776.51,-227.5C6776.51,-227.5 6746.51,-227.5 6746.51,-227.5 6740.51,-227.5 6734.51,-221.5 6734.51,-215.5 6734.51,-215.5 6734.51,-203.5 6734.51,-203.5 6734.51,-197.5 6740.51,-191.5 6746.51,-191.5 6746.51,-191.5 6776.51,-191.5 6776.51,-191.5 6782.51,-191.5 6788.51,-197.5 6788.51,-203.5 6788.51,-203.5 6788.51,-215.5 6788.51,-215.5 6788.51,-221.5 6782.51,-227.5 6776.51,-227.5"/>
<text text-anchor="middle" x="6761.51" y="-205.05" font-family="Helvetica,sans-Serif" font-size="11.00">Product</text>
</g>
<!-- n_Product&#45;&gt;n_Resource -->
<g id="edge55" class="edge">
<title>n_Product&#45;&gt;n_Resource</title>
<path fill="none" stroke="#64748b" d="M6747.93,-191.09C6739.56,-180.73 6728.38,-167.56 6717.51,-156.75 6711,-150.28 6703.6,-143.69 6696.53,-137.72"/>
<polygon fill="#64748b" stroke="#64748b" points="6698.23,-135.72 6690.78,-132.94 6694.87,-139.76 6698.23,-135.72"/>
<text text-anchor="middle" x="6750.13" y="-157.95" font-family="Helvetica,sans-Serif" font-size="9.00">subClassOf</text>
</g>
<!-- n_Remedy -->
<g id="node62" class="node">
<title>n_Remedy</title>
<path fill="#f8fafc" stroke="#64748b" d="M3312.51,-131.75C3312.51,-131.75 3282.51,-131.75 3282.51,-131.75 3276.51,-131.75 3270.51,-125.75 3270.51,-119.75 3270.51,-119.75 3270.51,-107.75 3270.51,-107.75 3270.51,-101.75 3276.51,-95.75 3282.51,-95.75 3282.51,-95.75 3312.51,-95.75 3312.51,-95.75 3318.51,-95.75 3324.51,-101.75 3324.51,-107.75 3324.51,-107.75 3324.51,-119.75 3324.51,-119.75 3324.51,-125.75 3318.51,-131.75 3312.51,-131.75"/>
<text text-anchor="middle" x="3297.51" y="-109.3" font-family="Helvetica,sans-Serif" font-size="11.00">Remedy</text>
</g>
<!-- n_Remedy&#45;&gt;n_ContractComponent -->
<g id="edge56" class="edge">
<title>n_Remedy&#45;&gt;n_ContractComponent</title>
<path fill="none" stroke="#64748b" d="M3270.25,-102.64C3263.8,-100.31 3256.93,-97.9 3250.51,-95.75 3200.68,-79.09 3188.36,-74.21 3137.51,-61 3093.14,-49.47 3042.56,-38.74 3003.76,-31.01"/>
<polygon fill="#64748b" stroke="#64748b" points="3004.52,-28.48 2996.65,-29.6 3003.5,-33.63 3004.52,-28.48"/>
<text text-anchor="middle" x="3196.46" y="-62.2" font-family="Helvetica,sans-Serif" font-size="9.00">subClassOf</text>
</g>
<!-- n_RenewalClause -->
<g id="node63" class="node">
<title>n_RenewalClause</title>
<path fill="#f8fafc" stroke="#64748b" d="M5994.52,-227.5C5994.52,-227.5 5930.5,-227.5 5930.5,-227.5 5924.5,-227.5 5918.5,-221.5 5918.5,-215.5 5918.5,-215.5 5918.5,-203.5 5918.5,-203.5 5918.5,-197.5 5924.5,-191.5 5930.5,-191.5 5930.5,-191.5 5994.52,-191.5 5994.52,-191.5 6000.52,-191.5 6006.52,-197.5 6006.52,-203.5 6006.52,-203.5 6006.52,-215.5 6006.52,-215.5 6006.52,-221.5 6000.52,-227.5 5994.52,-227.5"/>
<text text-anchor="middle" x="5962.51" y="-205.05" font-family="Helvetica,sans-Serif" font-size="11.00">Renewal clause</text>
</g>
<!-- n_RenewalClause&#45;&gt;n_Clause -->
<g id="edge57" class="edge">
<title>n_RenewalClause&#45;&gt;n_Clause</title>
<path fill="none" stroke="#64748b" d="M5918.21,-196.23C5911.63,-194.55 5904.91,-192.92 5898.51,-191.5 5813.43,-172.57 5792.1,-166.63 5705.51,-156.75 5390,-120.74 5005.44,-115.58 4887.56,-114.86"/>
<polygon fill="#64748b" stroke="#64748b" points="4887.93,-112.24 4880.41,-114.82 4887.9,-117.49 4887.93,-112.24"/>
<text text-anchor="middle" x="5799.9" y="-157.95" font-family="Helvetica,sans-Serif" font-size="9.00">subClassOf</text>
</g>
<!-- n_RenewalEvent -->
<g id="node64" class="node">
<title>n_RenewalEvent</title>
<path fill="#f8fafc" stroke="#64748b" d="M1645.27,-323.25C1645.27,-323.25 1585.75,-323.25 1585.75,-323.25 1579.75,-323.25 1573.75,-317.25 1573.75,-311.25 1573.75,-311.25 1573.75,-299.25 1573.75,-299.25 1573.75,-293.25 1579.75,-287.25 1585.75,-287.25 1585.75,-287.25 1645.27,-287.25 1645.27,-287.25 1651.27,-287.25 1657.27,-293.25 1657.27,-299.25 1657.27,-299.25 1657.27,-311.25 1657.27,-311.25 1657.27,-317.25 1651.27,-323.25 1645.27,-323.25"/>
<text text-anchor="middle" x="1615.51" y="-300.8" font-family="Helvetica,sans-Serif" font-size="11.00">Renewal event</text>
</g>
<!-- n_RenewalEvent&#45;&gt;n_ContractEvent -->
<g id="edge58" class="edge">
<title>n_RenewalEvent&#45;&gt;n_ContractEvent</title>
<path fill="none" stroke="#64748b" d="M1573.38,-286.94C1546.28,-276.19 1510.16,-262.54 1477.51,-252.5 1432.49,-238.65 1420.09,-239.38 1374.51,-227.5 1370.92,-226.56 1367.22,-225.58 1363.49,-224.58"/>
<polygon fill="#64748b" stroke="#64748b" points="1364.19,-222.05 1356.26,-222.61 1362.81,-227.11 1364.19,-222.05"/>
<text text-anchor="middle" x="1527.94" y="-253.7" font-family="Helvetica,sans-Serif" font-size="9.00">subClassOf</text>
</g>
<!-- n_RenewalRight -->
<g id="node65" class="node">
<title>n_RenewalRight</title>
<path fill="#f8fafc" stroke="#64748b" d="M3339.65,-227.5C3339.65,-227.5 3285.38,-227.5 3285.38,-227.5 3279.38,-227.5 3273.38,-221.5 3273.38,-215.5 3273.38,-215.5 3273.38,-203.5 3273.38,-203.5 3273.38,-197.5 3279.38,-191.5 3285.38,-191.5 3285.38,-191.5 3339.65,-191.5 3339.65,-191.5 3345.65,-191.5 3351.65,-197.5 3351.65,-203.5 3351.65,-203.5 3351.65,-215.5 3351.65,-215.5 3351.65,-221.5 3345.65,-227.5 3339.65,-227.5"/>
<text text-anchor="middle" x="3312.51" y="-205.05" font-family="Helvetica,sans-Serif" font-size="11.00">Renewal right</text>
</g>
<!-- n_RenewalRight&#45;&gt;n_Right -->
<g id="edge59" class="edge">
<title>n_RenewalRight&#45;&gt;n_Right</title>
<path fill="none" stroke="#64748b" d="M3296.25,-191.07C3286.29,-180.71 3273.08,-167.53 3260.51,-156.75 3252.71,-150.06 3243.93,-143.26 3235.63,-137.14"/>
<polygon fill="#64748b" stroke="#64748b" points="3237.65,-135.35 3230.04,-133.06 3234.55,-139.6 3237.65,-135.35"/>
<text text-anchor="middle" x="3294.59" y="-157.95" font-family="Helvetica,sans-Serif" font-size="9.00">subClassOf</text>
</g>
<!-- n_RenewalTerm -->
<g id="node66" class="node">
<title>n_RenewalTerm</title>
<path fill="#f8fafc" stroke="#64748b" d="M1979.02,-227.5C1979.02,-227.5 1924,-227.5 1924,-227.5 1918,-227.5 1912,-221.5 1912,-215.5 1912,-215.5 1912,-203.5 1912,-203.5 1912,-197.5 1918,-191.5 1924,-191.5 1924,-191.5 1979.02,-191.5 1979.02,-191.5 1985.02,-191.5 1991.02,-197.5 1991.02,-203.5 1991.02,-203.5 1991.02,-215.5 1991.02,-215.5 1991.02,-221.5 1985.02,-227.5 1979.02,-227.5"/>
<text text-anchor="middle" x="1951.51" y="-205.05" font-family="Helvetica,sans-Serif" font-size="11.00">Renewal term</text>
</g>
<!-- n_RenewalTerm&#45;&gt;n_ContractTerm -->
<g id="edge60" class="edge">
<title>n_RenewalTerm&#45;&gt;n_ContractTerm</title>
<path fill="none" stroke="#64748b" d="M1922.36,-191.05C1904.68,-180.68 1881.55,-167.51 1860.51,-156.75 1846,-149.33 1829.92,-141.77 1815.31,-135.15"/>
<polygon fill="#64748b" stroke="#64748b" points="1816.67,-132.88 1808.75,-132.19 1814.51,-137.66 1816.67,-132.88"/>
<text text-anchor="middle" x="1901.85" y="-157.95" font-family="Helvetica,sans-Serif" font-size="9.00">subClassOf</text>
</g>
<!-- n_ReviewFinding -->
<g id="node68" class="node">
<title>n_ReviewFinding</title>
<path fill="#f8fafc" stroke="#64748b" d="M7361.52,-323.25C7361.52,-323.25 7303.5,-323.25 7303.5,-323.25 7297.5,-323.25 7291.5,-317.25 7291.5,-311.25 7291.5,-311.25 7291.5,-299.25 7291.5,-299.25 7291.5,-293.25 7297.5,-287.25 7303.5,-287.25 7303.5,-287.25 7361.52,-287.25 7361.52,-287.25 7367.52,-287.25 7373.52,-293.25 7373.52,-299.25 7373.52,-299.25 7373.52,-311.25 7373.52,-311.25 7373.52,-317.25 7367.52,-323.25 7361.52,-323.25"/>
<text text-anchor="middle" x="7332.51" y="-300.8" font-family="Helvetica,sans-Serif" font-size="11.00">Review finding</text>
</g>
<!-- n_Right&#45;&gt;n_ContractComponent -->
<g id="edge61" class="edge">
<title>n_Right&#45;&gt;n_ContractComponent</title>
<path fill="none" stroke="#64748b" d="M3176.35,-103.07C3134.41,-88.12 3052.94,-59.08 2997.63,-39.36"/>
<polygon fill="#64748b" stroke="#64748b" points="2998.7,-36.95 2990.75,-36.91 2996.93,-41.9 2998.7,-36.95"/>
<text text-anchor="middle" x="3103.52" y="-62.2" font-family="Helvetica,sans-Serif" font-size="9.00">subClassOf</text>
</g>
<!-- n_SecurityObligation -->
<g id="node71" class="node">
<title>n_SecurityObligation</title>
<path fill="#f8fafc" stroke="#64748b" d="M2395.15,-323.25C2395.15,-323.25 2319.88,-323.25 2319.88,-323.25 2313.88,-323.25 2307.88,-317.25 2307.88,-311.25 2307.88,-311.25 2307.88,-299.25 2307.88,-299.25 2307.88,-293.25 2313.88,-287.25 2319.88,-287.25 2319.88,-287.25 2395.15,-287.25 2395.15,-287.25 2401.15,-287.25 2407.15,-293.25 2407.15,-299.25 2407.15,-299.25 2407.15,-311.25 2407.15,-311.25 2407.15,-317.25 2401.15,-323.25 2395.15,-323.25"/>
<text text-anchor="middle" x="2357.51" y="-300.8" font-family="Helvetica,sans-Serif" font-size="11.00">Security obligation</text>
</g>
<!-- n_SecurityObligation&#45;&gt;n_ComplianceObligation -->
<g id="edge62" class="edge">
<title>n_SecurityObligation&#45;&gt;n_ComplianceObligation</title>
<path fill="none" stroke="#64748b" d="M2357.51,-287.05C2357.51,-273 2357.51,-252.91 2357.51,-236.83"/>
<polygon fill="#64748b" stroke="#64748b" points="2360.14,-236.92 2357.51,-229.42 2354.89,-236.92 2360.14,-236.92"/>
<text text-anchor="middle" x="2381.14" y="-253.7" font-family="Helvetica,sans-Serif" font-size="9.00">subClassOf</text>
</g>
<!-- n_Service -->
<g id="node72" class="node">
<title>n_Service</title>
<path fill="#f8fafc" stroke="#64748b" d="M6870.51,-227.5C6870.51,-227.5 6840.51,-227.5 6840.51,-227.5 6834.51,-227.5 6828.51,-221.5 6828.51,-215.5 6828.51,-215.5 6828.51,-203.5 6828.51,-203.5 6828.51,-197.5 6834.51,-191.5 6840.51,-191.5 6840.51,-191.5 6870.51,-191.5 6870.51,-191.5 6876.51,-191.5 6882.51,-197.5 6882.51,-203.5 6882.51,-203.5 6882.51,-215.5 6882.51,-215.5 6882.51,-221.5 6876.51,-227.5 6870.51,-227.5"/>
<text text-anchor="middle" x="6855.51" y="-205.05" font-family="Helvetica,sans-Serif" font-size="11.00">Service</text>
</g>
<!-- n_Service&#45;&gt;n_Resource -->
<g id="edge63" class="edge">
<title>n_Service&#45;&gt;n_Resource</title>
<path fill="none" stroke="#64748b" d="M6834.78,-191.24C6820.91,-180.31 6801.89,-166.44 6783.51,-156.75 6758.48,-143.55 6728.39,-132.79 6705.13,-125.46"/>
<polygon fill="#64748b" stroke="#64748b" points="6705.96,-122.97 6698.02,-123.27 6704.41,-127.99 6705.96,-122.97"/>
<text text-anchor="middle" x="6821.8" y="-157.95" font-family="Helvetica,sans-Serif" font-size="9.00">subClassOf</text>
</g>
<!-- n_ServiceLevel -->
<g id="node73" class="node">
<title>n_ServiceLevel</title>
<path fill="#f8fafc" stroke="#64748b" d="M1454.65,-227.5C1454.65,-227.5 1406.38,-227.5 1406.38,-227.5 1400.38,-227.5 1394.38,-221.5 1394.38,-215.5 1394.38,-215.5 1394.38,-203.5 1394.38,-203.5 1394.38,-197.5 1400.38,-191.5 1406.38,-191.5 1406.38,-191.5 1454.65,-191.5 1454.65,-191.5 1460.65,-191.5 1466.65,-197.5 1466.65,-203.5 1466.65,-203.5 1466.65,-215.5 1466.65,-215.5 1466.65,-221.5 1460.65,-227.5 1454.65,-227.5"/>
<text text-anchor="middle" x="1430.51" y="-205.05" font-family="Helvetica,sans-Serif" font-size="11.00">Service level</text>
</g>
<!-- n_ServiceLevel&#45;&gt;n_ContractTerm -->
<g id="edge64" class="edge">
<title>n_ServiceLevel&#45;&gt;n_ContractTerm</title>
<path fill="none" stroke="#64748b" d="M1466.88,-196.72C1500.94,-185.84 1553.34,-169.48 1599.26,-156.75 1640.14,-145.42 1686.98,-133.91 1721,-125.81"/>
<polygon fill="#64748b" stroke="#64748b" points="1721.2,-128.46 1727.89,-124.18 1719.99,-123.35 1721.2,-128.46"/>
<text text-anchor="middle" x="1622.89" y="-157.95" font-family="Helvetica,sans-Serif" font-size="9.00">subClassOf</text>
</g>
<!-- n_SetoffRight -->
<g id="node74" class="node">
<title>n_SetoffRight</title>
<path fill="#f8fafc" stroke="#64748b" d="M3443.52,-227.5C3443.52,-227.5 3403.5,-227.5 3403.5,-227.5 3397.5,-227.5 3391.5,-221.5 3391.5,-215.5 3391.5,-215.5 3391.5,-203.5 3391.5,-203.5 3391.5,-197.5 3397.5,-191.5 3403.5,-191.5 3403.5,-191.5 3443.52,-191.5 3443.52,-191.5 3449.52,-191.5 3455.52,-197.5 3455.52,-203.5 3455.52,-203.5 3455.52,-215.5 3455.52,-215.5 3455.52,-221.5 3449.52,-227.5 3443.52,-227.5"/>
<text text-anchor="middle" x="3423.51" y="-205.05" font-family="Helvetica,sans-Serif" font-size="11.00">Setoff right</text>
</g>
<!-- n_SetoffRight&#45;&gt;n_Right -->
<g id="edge65" class="edge">
<title>n_SetoffRight&#45;&gt;n_Right</title>
<path fill="none" stroke="#64748b" d="M3395.11,-191.19C3376.59,-180.37 3351.65,-166.65 3328.51,-156.75 3295.04,-142.42 3284.97,-143.5 3250.51,-131.75 3246.81,-130.49 3242.95,-129.14 3239.11,-127.78"/>
<polygon fill="#64748b" stroke="#64748b" points="3240.16,-125.37 3232.21,-125.32 3238.39,-130.31 3240.16,-125.37"/>
<text text-anchor="middle" x="3370.93" y="-157.95" font-family="Helvetica,sans-Serif" font-size="9.00">subClassOf</text>
</g>
<!-- n_SuspensionRight -->
<g id="node75" class="node">
<title>n_SuspensionRight</title>
<path fill="#f8fafc" stroke="#64748b" d="M3575.4,-227.5C3575.4,-227.5 3507.62,-227.5 3507.62,-227.5 3501.62,-227.5 3495.62,-221.5 3495.62,-215.5 3495.62,-215.5 3495.62,-203.5 3495.62,-203.5 3495.62,-197.5 3501.62,-191.5 3507.62,-191.5 3507.62,-191.5 3575.4,-191.5 3575.4,-191.5 3581.4,-191.5 3587.4,-197.5 3587.4,-203.5 3587.4,-203.5 3587.4,-215.5 3587.4,-215.5 3587.4,-221.5 3581.4,-227.5 3575.4,-227.5"/>
<text text-anchor="middle" x="3541.51" y="-205.05" font-family="Helvetica,sans-Serif" font-size="11.00">Suspension right</text>
</g>
<!-- n_SuspensionRight&#45;&gt;n_Right -->
<g id="edge66" class="edge">
<title>n_SuspensionRight&#45;&gt;n_Right</title>
<path fill="none" stroke="#64748b" d="M3501.74,-191.05C3474.76,-179.83 3438.04,-165.71 3404.51,-156.75 3337.52,-138.85 3317.63,-149.17 3250.51,-131.75 3246.72,-130.77 3242.81,-129.6 3238.94,-128.35"/>
<polygon fill="#64748b" stroke="#64748b" points="3239.96,-125.93 3232.01,-126 3238.27,-130.9 3239.96,-125.93"/>
<text text-anchor="middle" x="3458.83" y="-157.95" font-family="Helvetica,sans-Serif" font-size="9.00">subClassOf</text>
</g>
<!-- n_TerminatedState -->
<g id="node76" class="node">
<title>n_TerminatedState</title>
<path fill="#f8fafc" stroke="#64748b" d="M783.02,-323.25C783.02,-323.25 716,-323.25 716,-323.25 710,-323.25 704,-317.25 704,-311.25 704,-311.25 704,-299.25 704,-299.25 704,-293.25 710,-287.25 716,-287.25 716,-287.25 783.02,-287.25 783.02,-287.25 789.02,-287.25 795.02,-293.25 795.02,-299.25 795.02,-299.25 795.02,-311.25 795.02,-311.25 795.02,-317.25 789.02,-323.25 783.02,-323.25"/>
<text text-anchor="middle" x="749.51" y="-300.8" font-family="Helvetica,sans-Serif" font-size="11.00">Terminated state</text>
</g>
<!-- n_TerminatedState&#45;&gt;n_LifecycleState -->
<g id="edge67" class="edge">
<title>n_TerminatedState&#45;&gt;n_LifecycleState</title>
<path fill="none" stroke="#64748b" d="M703.58,-288.88C669.78,-277.89 622.59,-263.21 580.51,-252.5 527.01,-238.89 464.83,-226.7 422.89,-219.01"/>
<polygon fill="#64748b" stroke="#64748b" points="423.6,-216.47 415.75,-217.7 422.65,-221.63 423.6,-216.47"/>
<text text-anchor="middle" x="636.79" y="-253.7" font-family="Helvetica,sans-Serif" font-size="9.00">subClassOf</text>
</g>
<!-- n_TerminationClause -->
<g id="node77" class="node">
<title>n_TerminationClause</title>
<path fill="#f8fafc" stroke="#64748b" d="M6134.9,-227.5C6134.9,-227.5 6058.12,-227.5 6058.12,-227.5 6052.12,-227.5 6046.12,-221.5 6046.12,-215.5 6046.12,-215.5 6046.12,-203.5 6046.12,-203.5 6046.12,-197.5 6052.12,-191.5 6058.12,-191.5 6058.12,-191.5 6134.9,-191.5 6134.9,-191.5 6140.9,-191.5 6146.9,-197.5 6146.9,-203.5 6146.9,-203.5 6146.9,-215.5 6146.9,-215.5 6146.9,-221.5 6140.9,-227.5 6134.9,-227.5"/>
<text text-anchor="middle" x="6096.51" y="-205.05" font-family="Helvetica,sans-Serif" font-size="11.00">Termination clause</text>
</g>
<!-- n_TerminationClause&#45;&gt;n_Clause -->
<g id="edge68" class="edge">
<title>n_TerminationClause&#45;&gt;n_Clause</title>
<path fill="none" stroke="#64748b" d="M6045.99,-195.94C5993.33,-183.46 5908.21,-165.03 5833.51,-156.75 5465.82,-115.97 5016.63,-114.14 4887.68,-114.53"/>
<polygon fill="#64748b" stroke="#64748b" points="4887.95,-111.91 4880.46,-114.56 4887.97,-117.16 4887.95,-111.91"/>
<text text-anchor="middle" x="5922.62" y="-157.95" font-family="Helvetica,sans-Serif" font-size="9.00">subClassOf</text>
</g>
<!-- n_TerminationEvent -->
<g id="node78" class="node">
<title>n_TerminationEvent</title>
<path fill="#f8fafc" stroke="#64748b" d="M1781.65,-323.25C1781.65,-323.25 1709.38,-323.25 1709.38,-323.25 1703.38,-323.25 1697.38,-317.25 1697.38,-311.25 1697.38,-311.25 1697.38,-299.25 1697.38,-299.25 1697.38,-293.25 1703.38,-287.25 1709.38,-287.25 1709.38,-287.25 1781.65,-287.25 1781.65,-287.25 1787.65,-287.25 1793.65,-293.25 1793.65,-299.25 1793.65,-299.25 1793.65,-311.25 1793.65,-311.25 1793.65,-317.25 1787.65,-323.25 1781.65,-323.25"/>
<text text-anchor="middle" x="1745.51" y="-300.8" font-family="Helvetica,sans-Serif" font-size="11.00">Termination event</text>
</g>
<!-- n_TerminationEvent&#45;&gt;n_ContractEvent -->
<g id="edge69" class="edge">
<title>n_TerminationEvent&#45;&gt;n_ContractEvent</title>
<path fill="none" stroke="#64748b" d="M1697.16,-288.63C1660.31,-277.22 1608.15,-262.13 1561.51,-252.5 1479.39,-235.55 1456.65,-244.35 1374.51,-227.5 1370.94,-226.77 1367.26,-225.94 1363.58,-225.05"/>
<polygon fill="#64748b" stroke="#64748b" points="1364.38,-222.54 1356.46,-223.26 1363.1,-227.64 1364.38,-222.54"/>
<text text-anchor="middle" x="1625.94" y="-253.7" font-family="Helvetica,sans-Serif" font-size="9.00">subClassOf</text>
</g>
<!-- n_TerminationRight -->
<g id="node79" class="node">
<title>n_TerminationRight</title>
<path fill="#f8fafc" stroke="#64748b" d="M3121.02,-227.5C3121.02,-227.5 3054,-227.5 3054,-227.5 3048,-227.5 3042,-221.5 3042,-215.5 3042,-215.5 3042,-203.5 3042,-203.5 3042,-197.5 3048,-191.5 3054,-191.5 3054,-191.5 3121.02,-191.5 3121.02,-191.5 3127.02,-191.5 3133.02,-197.5 3133.02,-203.5 3133.02,-203.5 3133.02,-215.5 3133.02,-215.5 3133.02,-221.5 3127.02,-227.5 3121.02,-227.5"/>
<text text-anchor="middle" x="3087.51" y="-205.05" font-family="Helvetica,sans-Serif" font-size="11.00">Termination right</text>
</g>
<!-- n_TerminationRight&#45;&gt;n_Right -->
<g id="edge70" class="edge">
<title>n_TerminationRight&#45;&gt;n_Right</title>
<path fill="none" stroke="#64748b" d="M3106.45,-191.04C3117.79,-180.8 3132.6,-167.74 3146.26,-156.75 3154.36,-150.24 3163.33,-143.46 3171.72,-137.29"/>
<polygon fill="#64748b" stroke="#64748b" points="3173.17,-139.49 3177.69,-132.95 3170.08,-135.24 3173.17,-139.49"/>
<text text-anchor="middle" x="3169.89" y="-157.95" font-family="Helvetica,sans-Serif" font-size="9.00">subClassOf</text>
</g>
<!-- n_WarrantyClause -->
<g id="node80" class="node">
<title>n_WarrantyClause</title>
<path fill="#f8fafc" stroke="#64748b" d="M3705.27,-227.5C3705.27,-227.5 3639.75,-227.5 3639.75,-227.5 3633.75,-227.5 3627.75,-221.5 3627.75,-215.5 3627.75,-215.5 3627.75,-203.5 3627.75,-203.5 3627.75,-197.5 3633.75,-191.5 3639.75,-191.5 3639.75,-191.5 3705.27,-191.5 3705.27,-191.5 3711.27,-191.5 3717.27,-197.5 3717.27,-203.5 3717.27,-203.5 3717.27,-215.5 3717.27,-215.5 3717.27,-221.5 3711.27,-227.5 3705.27,-227.5"/>
<text text-anchor="middle" x="3672.51" y="-205.05" font-family="Helvetica,sans-Serif" font-size="11.00">Warranty clause</text>
</g>
<!-- n_WarrantyClause&#45;&gt;n_Clause -->
<g id="edge71" class="edge">
<title>n_WarrantyClause&#45;&gt;n_Clause</title>
<path fill="none" stroke="#64748b" d="M3717.48,-196.11C3724.17,-194.45 3731,-192.86 3737.51,-191.5 3835.17,-171.13 3860.01,-166.83 3959.26,-156.75 4290.44,-123.11 4693.56,-116.35 4815.13,-115.05"/>
<polygon fill="#64748b" stroke="#64748b" points="4815.06,-117.68 4822.54,-114.97 4815.01,-112.43 4815.06,-117.68"/>
<text text-anchor="middle" x="3982.89" y="-157.95" font-family="Helvetica,sans-Serif" font-size="9.00">subClassOf</text>
</g>
</g>
</svg>
