<?xml version="1.0" encoding="UTF-8" standalone="no"?>
<!DOCTYPE svg PUBLIC "-//W3C//DTD SVG 1.1//EN"
 "http://www.w3.org/Graphics/SVG/1.1/DTD/svg11.dtd">
<!-- Generated by graphviz version 12.2.1 (20241206.2353)
 -->
<!-- Title: n_sample_nda_graph Pages: 1 -->
<svg width="1024pt" height="1676pt"
 viewBox="0.00 0.00 1024.23 1675.55" xmlns="http://www.w3.org/2000/svg" xmlns:xlink="http://www.w3.org/1999/xlink">
<g id="graph0" class="graph" transform="scale(1 1) rotate(0) translate(25.2 1650.35)">
<title>n_sample_nda_graph</title>
<polygon fill="white" stroke="none" points="-25.2,25.2 -25.2,-1650.35 999.03,-1650.35 999.03,25.2 -25.2,25.2"/>
<text text-anchor="middle" x="486.91" y="-1600.25" font-family="Times,serif" font-size="22.00">Sample NDA relationship graph</text>
<!-- n_AcmeLtd -->
<g id="node1" class="node">
<title>n_AcmeLtd</title>
<path fill="#f8fafc" stroke="#64748b" d="M909.7,-950.65C909.7,-950.65 876.43,-950.65 876.43,-950.65 870.43,-950.65 864.43,-944.65 864.43,-938.65 864.43,-938.65 864.43,-926.65 864.43,-926.65 864.43,-920.65 870.43,-914.65 876.43,-914.65 876.43,-914.65 909.7,-914.65 909.7,-914.65 915.7,-914.65 921.7,-920.65 921.7,-926.65 921.7,-926.65 921.7,-938.65 921.7,-938.65 921.7,-944.65 915.7,-950.65 909.7,-950.65"/>
<text text-anchor="middle" x="893.07" y="-928.2" font-family="Helvetica,sans-Serif" font-size="11.00">Acme Ltd</text>
</g>
<!-- n_ActiveStateExample -->
<g id="node2" class="node">
<title>n_ActiveStateExample</title>
<path fill="#f8fafc" stroke="#64748b" d="M290.4,-1343.65C290.4,-1343.65 260.4,-1343.65 260.4,-1343.65 254.4,-1343.65 248.4,-1337.65 248.4,-1331.65 248.4,-1331.65 248.4,-1319.65 248.4,-1319.65 248.4,-1313.65 254.4,-1307.65 260.4,-1307.65 260.4,-1307.65 290.4,-1307.65 290.4,-1307.65 296.4,-1307.65 302.4,-1313.65 302.4,-1319.65 302.4,-1319.65 302.4,-1331.65 302.4,-1331.65 302.4,-1337.65 296.4,-1343.65 290.4,-1343.65"/>
<text text-anchor="middle" x="275.4" y="-1321.2" font-family="Helvetica,sans-Serif" font-size="11.00">Active</text>
</g>
<!-- n_BetaLtd -->
<g id="node3" class="node">
<title>n_BetaLtd</title>
<path fill="#f8fafc" stroke="#64748b" d="M908.07,-592.65C908.07,-592.65 878.07,-592.65 878.07,-592.65 872.07,-592.65 866.07,-586.65 866.07,-580.65 866.07,-580.65 866.07,-568.65 866.07,-568.65 866.07,-562.65 872.07,-556.65 878.07,-556.65 878.07,-556.65 908.07,-556.65 908.07,-556.65 914.07,-556.65 920.07,-562.65 920.07,-568.65 920.07,-568.65 920.07,-580.65 920.07,-580.65 920.07,-586.65 914.07,-592.65 908.07,-592.65"/>
<text text-anchor="middle" x="893.07" y="-570.2" font-family="Helvetica,sans-Serif" font-size="11.00">Beta Ltd</text>
</g>
<!-- n_EnglandAndWales -->
<g id="node4" class="node">
<title>n_EnglandAndWales</title>
<path fill="#f8fafc" stroke="#64748b" d="M604.81,-1074.65C604.81,-1074.65 523.54,-1074.65 523.54,-1074.65 517.54,-1074.65 511.54,-1068.65 511.54,-1062.65 511.54,-1062.65 511.54,-1050.65 511.54,-1050.65 511.54,-1044.65 517.54,-1038.65 523.54,-1038.65 523.54,-1038.65 604.81,-1038.65 604.81,-1038.65 610.81,-1038.65 616.81,-1044.65 616.81,-1050.65 616.81,-1050.65 616.81,-1062.65 616.81,-1062.65 616.81,-1068.65 610.81,-1074.65 604.81,-1074.65"/>
<text text-anchor="middle" x="564.17" y="-1052.2" font-family="Helvetica,sans-Serif" font-size="11.00">England and Wales</text>
</g>
<!-- n_SampleConfidentialInformation -->
<g id="node5" class="node">
<title>n_SampleConfidentialInformation</title>
<path fill="#f8fafc" stroke="#64748b" d="M961.83,-1535.65C961.83,-1535.65 824.31,-1535.65 824.31,-1535.65 818.31,-1535.65 812.31,-1529.65 812.31,-1523.65 812.31,-1523.65 812.31,-1511.65 812.31,-1511.65 812.31,-1505.65 818.31,-1499.65 824.31,-1499.65 824.31,-1499.65 961.83,-1499.65 961.83,-1499.65 967.83,-1499.65 973.83,-1505.65 973.83,-1511.65 973.83,-1511.65 973.83,-1523.65 973.83,-1523.65 973.83,-1529.65 967.83,-1535.65 961.83,-1535.65"/>
<text text-anchor="middle" x="893.07" y="-1513.2" font-family="Helvetica,sans-Serif" font-size="11.00">Sample confidential information</text>
</g>
<!-- n_SampleConfidentialityClause -->
<g id="node6" class="node">
<title>n_SampleConfidentialityClause</title>
<path fill="#f8fafc" stroke="#64748b" d="M338.16,-1591.65C338.16,-1591.65 212.64,-1591.65 212.64,-1591.65 206.64,-1591.65 200.64,-1585.65 200.64,-1579.65 200.64,-1579.65 200.64,-1567.65 200.64,-1567.65 200.64,-1561.65 206.64,-1555.65 212.64,-1555.65 212.64,-1555.65 338.16,-1555.65 338.16,-1555.65 344.16,-1555.65 350.16,-1561.65 350.16,-1567.65 350.16,-1567.65 350.16,-1579.65 350.16,-1579.65 350.16,-1585.65 344.16,-1591.65 338.16,-1591.65"/>
<text text-anchor="middle" x="275.4" y="-1569.2" font-family="Helvetica,sans-Serif" font-size="11.00">Sample confidentiality clause</text>
</g>
<!-- n_SampleConfidentialityClause&#45;&gt;n_SampleConfidentialInformation -->
<g id="edge1" class="edge">
<title>n_SampleConfidentialityClause&#45;&gt;n_SampleConfidentialInformation</title>
<path fill="none" stroke="#64748b" d="M350.59,-1572.46C382.33,-1571.6 419.78,-1570.15 453.54,-1567.65 574.89,-1558.7 714.43,-1541.61 802.9,-1529.93"/>
<polygon fill="#64748b" stroke="#64748b" points="803.24,-1532.53 810.33,-1528.95 802.55,-1527.33 803.24,-1532.53"/>
<text text-anchor="middle" x="564.17" y="-1566.81" font-family="Helvetica,sans-Serif" font-size="9.00">has confidential information</text>
</g>
<!-- n_SampleConfidentialityObligation -->
<g id="node8" class="node">
<title>n_SampleConfidentialityObligation</title>
<path fill="#f8fafc" stroke="#64748b" d="M634.43,-1385.65C634.43,-1385.65 493.91,-1385.65 493.91,-1385.65 487.91,-1385.65 481.91,-1379.65 481.91,-1373.65 481.91,-1373.65 481.91,-1361.65 481.91,-1361.65 481.91,-1355.65 487.91,-1349.65 493.91,-1349.65 493.91,-1349.65 634.43,-1349.65 634.43,-1349.65 640.43,-1349.65 646.43,-1355.65 646.43,-1361.65 646.43,-1361.65 646.43,-1373.65 646.43,-1373.65 646.43,-1379.65 640.43,-1385.65 634.43,-1385.65"/>
<text text-anchor="middle" x="564.17" y="-1363.2" font-family="Helvetica,sans-Serif" font-size="11.00">Sample confidentiality obligation</text>
</g>
<!-- n_SampleConfidentialityClause&#45;&gt;n_SampleConfidentialityObligation -->
<g id="edge2" class="edge">
<title>n_SampleConfidentialityClause&#45;&gt;n_SampleConfidentialityObligation</title>
<path fill="none" stroke="#64748b" d="M350.36,-1557.6C384.03,-1547.83 423.06,-1532.84 453.54,-1510.65 497.14,-1478.92 531.74,-1425.08 549.68,-1393.29"/>
<polygon fill="#64748b" stroke="#64748b" points="551.81,-1394.87 553.15,-1387.04 547.22,-1392.33 551.81,-1394.87"/>
<text text-anchor="middle" x="414.91" y="-1548.91" font-family="Helvetica,sans-Serif" font-size="9.00">imposes obligation</text>
</g>
<!-- n_SampleConfidentialityFinding -->
<g id="node7" class="node">
<title>n_SampleConfidentialityFinding</title>
<path fill="#f8fafc" stroke="#64748b" d="M338.54,-1185.65C338.54,-1185.65 212.27,-1185.65 212.27,-1185.65 206.27,-1185.65 200.27,-1179.65 200.27,-1173.65 200.27,-1173.65 200.27,-1161.65 200.27,-1161.65 200.27,-1155.65 206.27,-1149.65 212.27,-1149.65 212.27,-1149.65 338.54,-1149.65 338.54,-1149.65 344.54,-1149.65 350.54,-1155.65 350.54,-1161.65 350.54,-1161.65 350.54,-1173.65 350.54,-1173.65 350.54,-1179.65 344.54,-1185.65 338.54,-1185.65"/>
<text text-anchor="middle" x="275.4" y="-1163.2" font-family="Helvetica,sans-Serif" font-size="11.00">Sample confidentiality finding</text>
</g>
<!-- n_SampleConfidentialityRisk -->
<g id="node9" class="node">
<title>n_SampleConfidentialityRisk</title>
<path fill="#f8fafc" stroke="#64748b" d="M619.81,-1185.65C619.81,-1185.65 508.54,-1185.65 508.54,-1185.65 502.54,-1185.65 496.54,-1179.65 496.54,-1173.65 496.54,-1173.65 496.54,-1161.65 496.54,-1161.65 496.54,-1155.65 502.54,-1149.65 508.54,-1149.65 508.54,-1149.65 619.81,-1149.65 619.81,-1149.65 625.81,-1149.65 631.81,-1155.65 631.81,-1161.65 631.81,-1161.65 631.81,-1173.65 631.81,-1173.65 631.81,-1179.65 625.81,-1185.65 619.81,-1185.65"/>
<text text-anchor="middle" x="564.17" y="-1163.2" font-family="Helvetica,sans-Serif" font-size="11.00">Sample confidentiality risk</text>
</g>
<!-- n_SampleConfidentialityFinding&#45;&gt;n_SampleConfidentialityRisk -->
<g id="edge3" class="edge">
<title>n_SampleConfidentialityFinding&#45;&gt;n_SampleConfidentialityRisk</title>
<path fill="none" stroke="#64748b" d="M351,-1167.65C392.99,-1167.65 445.29,-1167.65 487.46,-1167.65"/>
<polygon fill="#64748b" stroke="#64748b" points="487.28,-1170.28 494.78,-1167.65 487.28,-1165.03 487.28,-1170.28"/>
<text text-anchor="middle" x="414.91" y="-1168.85" font-family="Helvetica,sans-Serif" font-size="9.00">has risk</text>
</g>
<!-- n_SampleConfidentialityObligation&#45;&gt;n_AcmeLtd -->
<g id="edge4" class="edge">
<title>n_SampleConfidentialityObligation&#45;&gt;n_AcmeLtd</title>
<path fill="none" stroke="#64748b" d="M646.79,-1371.54C693.51,-1369.34 750.07,-1358.51 787.31,-1323.65 841.53,-1272.91 877.63,-1039.44 888.57,-959.55"/>
<polygon fill="#64748b" stroke="#64748b" points="891.12,-960.3 889.52,-952.52 885.91,-959.6 891.12,-960.3"/>
<text text-anchor="middle" x="731.06" y="-1370.05" font-family="Helvetica,sans-Serif" font-size="9.00">owed by</text>
</g>
<!-- n_SampleConfidentialityObligation&#45;&gt;n_AcmeLtd -->
<g id="edge5" class="edge">
<title>n_SampleConfidentialityObligation&#45;&gt;n_AcmeLtd</title>
<path fill="none" stroke="#64748b" d="M599.86,-1349.35C621.24,-1338.31 649.35,-1324.24 674.81,-1312.9 723.89,-1291.05 750.72,-1308 787.31,-1268.65 871.02,-1178.64 887.86,-1022.61 891.23,-959.9"/>
<polygon fill="#64748b" stroke="#64748b" points="893.85,-960.13 891.58,-952.52 888.6,-959.88 893.85,-960.13"/>
<text text-anchor="middle" x="731.06" y="-1314.1" font-family="Helvetica,sans-Serif" font-size="9.00">owed to</text>
</g>
<!-- n_SampleConfidentialityObligation&#45;&gt;n_BetaLtd -->
<g id="edge6" class="edge">
<title>n_SampleConfidentialityObligation&#45;&gt;n_BetaLtd</title>
<path fill="none" stroke="#64748b" d="M583.28,-1349.37C626.66,-1304.37 736.66,-1182.84 787.31,-1058.65 815.16,-990.38 797.82,-966.95 812.31,-894.65 834.32,-784.84 869.26,-656.01 884.52,-601.34"/>
<polygon fill="#64748b" stroke="#64748b" points="886.98,-602.3 886.47,-594.37 881.92,-600.89 886.98,-602.3"/>
<text text-anchor="middle" x="731.06" y="-1243.97" font-family="Helvetica,sans-Serif" font-size="9.00">owed by</text>
</g>
<!-- n_SampleConfidentialityObligation&#45;&gt;n_BetaLtd -->
<g id="edge7" class="edge">
<title>n_SampleConfidentialityObligation&#45;&gt;n_BetaLtd</title>
<path fill="none" stroke="#64748b" d="M577.2,-1349.59C595.91,-1320.57 631.71,-1261.17 649.81,-1205.65 673.04,-1134.4 642.46,-1106.5 674.81,-1038.9 706.68,-972.3 750.58,-980.71 787.31,-916.65 848.88,-809.27 878.08,-661.76 887.99,-601.72"/>
<polygon fill="#64748b" stroke="#64748b" points="890.58,-602.17 889.18,-594.35 885.4,-601.34 890.58,-602.17"/>
<text text-anchor="middle" x="731.06" y="-1040.1" font-family="Helvetica,sans-Serif" font-size="9.00">owed to</text>
</g>
<!-- n_SampleConfidentialityObligation&#45;&gt;n_SampleConfidentialInformation -->
<g id="edge8" class="edge">
<title>n_SampleConfidentialityObligation&#45;&gt;n_SampleConfidentialInformation</title>
<path fill="none" stroke="#64748b" d="M605.26,-1386.05C665.51,-1413.69 779.22,-1465.87 843.89,-1495.55"/>
<polygon fill="#64748b" stroke="#64748b" points="842.63,-1497.85 850.54,-1498.6 844.82,-1493.08 842.63,-1497.85"/>
<text text-anchor="middle" x="731.06" y="-1470.34" font-family="Helvetica,sans-Serif" font-size="9.00">has confidential information</text>
</g>
<!-- n_SampleEffectiveDateTerm -->
<g id="node10" class="node">
<title>n_SampleEffectiveDateTerm</title>
<path fill="#f8fafc" stroke="#64748b" d="M333.29,-681.65C333.29,-681.65 217.52,-681.65 217.52,-681.65 211.52,-681.65 205.52,-675.65 205.52,-669.65 205.52,-669.65 205.52,-657.65 205.52,-657.65 205.52,-651.65 211.52,-645.65 217.52,-645.65 217.52,-645.65 333.29,-645.65 333.29,-645.65 339.29,-645.65 345.29,-651.65 345.29,-657.65 345.29,-657.65 345.29,-669.65 345.29,-669.65 345.29,-675.65 339.29,-681.65 333.29,-681.65"/>
<text text-anchor="middle" x="275.4" y="-659.2" font-family="Helvetica,sans-Serif" font-size="11.00">Sample effective date term</text>
</g>
<!-- n_SampleExecutionEvent -->
<g id="node11" class="node">
<title>n_SampleExecutionEvent</title>
<path fill="#f8fafc" stroke="#64748b" d="M615.31,-869.65C615.31,-869.65 513.04,-869.65 513.04,-869.65 507.04,-869.65 501.04,-863.65 501.04,-857.65 501.04,-857.65 501.04,-845.65 501.04,-845.65 501.04,-839.65 507.04,-833.65 513.04,-833.65 513.04,-833.65 615.31,-833.65 615.31,-833.65 621.31,-833.65 627.31,-839.65 627.31,-845.65 627.31,-845.65 627.31,-857.65 627.31,-857.65 627.31,-863.65 621.31,-869.65 615.31,-869.65"/>
<text text-anchor="middle" x="564.17" y="-847.2" font-family="Helvetica,sans-Serif" font-size="11.00">Sample execution event</text>
</g>
<!-- n_SampleExecutionEvent&#45;&gt;n_AcmeLtd -->
<g id="edge9" class="edge">
<title>n_SampleExecutionEvent&#45;&gt;n_AcmeLtd</title>
<path fill="none" stroke="#64748b" d="M627.43,-862.13C672.24,-870.21 733.94,-882.43 787.31,-896.9 810.52,-903.2 836.06,-911.88 856.12,-919.11"/>
<polygon fill="#64748b" stroke="#64748b" points="854.99,-921.49 862.94,-921.59 856.79,-916.56 854.99,-921.49"/>
<text text-anchor="middle" x="731.06" y="-898.1" font-family="Helvetica,sans-Serif" font-size="9.00">performed by</text>
</g>
<!-- n_SampleExecutionEvent&#45;&gt;n_BetaLtd -->
<g id="edge10" class="edge">
<title>n_SampleExecutionEvent&#45;&gt;n_BetaLtd</title>
<path fill="none" stroke="#64748b" d="M627.68,-837.66C675.83,-824.27 741.66,-800.03 787.31,-759.65 837.43,-715.33 869.1,-641 883.32,-601.4"/>
<polygon fill="#64748b" stroke="#64748b" points="885.74,-602.41 885.74,-594.47 880.79,-600.68 885.74,-602.41"/>
<text text-anchor="middle" x="731.06" y="-821.63" font-family="Helvetica,sans-Serif" font-size="9.00">performed by</text>
</g>
<!-- n_SampleGoverningLawClause -->
<g id="node12" class="node">
<title>n_SampleGoverningLawClause</title>
<path fill="#f8fafc" stroke="#64748b" d="M339.29,-1109.65C339.29,-1109.65 211.52,-1109.65 211.52,-1109.65 205.52,-1109.65 199.52,-1103.65 199.52,-1097.65 199.52,-1097.65 199.52,-1085.65 199.52,-1085.65 199.52,-1079.65 205.52,-1073.65 211.52,-1073.65 211.52,-1073.65 339.29,-1073.65 339.29,-1073.65 345.29,-1073.65 351.29,-1079.65 351.29,-1085.65 351.29,-1085.65 351.29,-1097.65 351.29,-1097.65 351.29,-1103.65 345.29,-1109.65 339.29,-1109.65"/>
<text text-anchor="middle" x="275.4" y="-1087.2" font-family="Helvetica,sans-Serif" font-size="11.00">Sample governing law clause</text>
</g>
<!-- n_SampleGoverningLawClause&#45;&gt;n_EnglandAndWales -->
<g id="edge11" class="edge">
<title>n_SampleGoverningLawClause&#45;&gt;n_EnglandAndWales</title>
<path fill="none" stroke="#64748b" d="M351.75,-1082.46C398.79,-1076.72 458.55,-1069.42 502.53,-1064.06"/>
<polygon fill="#64748b" stroke="#64748b" points="502.75,-1066.67 509.88,-1063.16 502.12,-1061.46 502.75,-1066.67"/>
<text text-anchor="middle" x="414.91" y="-1080.53" font-family="Helvetica,sans-Serif" font-size="9.00">governed by</text>
</g>
<!-- n_SampleMaterialBreachCondition -->
<g id="node13" class="node">
<title>n_SampleMaterialBreachCondition</title>
<path fill="#f8fafc" stroke="#64748b" d="M637.81,-246.65C637.81,-246.65 490.54,-246.65 490.54,-246.65 484.54,-246.65 478.54,-240.65 478.54,-234.65 478.54,-234.65 478.54,-222.65 478.54,-222.65 478.54,-216.65 484.54,-210.65 490.54,-210.65 490.54,-210.65 637.81,-210.65 637.81,-210.65 643.81,-210.65 649.81,-216.65 649.81,-222.65 649.81,-222.65 649.81,-234.65 649.81,-234.65 649.81,-240.65 643.81,-246.65 637.81,-246.65"/>
<text text-anchor="middle" x="564.17" y="-224.2" font-family="Helvetica,sans-Serif" font-size="11.00">Sample material breach condition</text>
</g>
<!-- n_SampleNDA -->
<g id="node14" class="node">
<title>n_SampleNDA</title>
<path fill="#f8fafc" stroke="#64748b" d="M63.27,-779.65C63.27,-779.65 12,-779.65 12,-779.65 6,-779.65 0,-773.65 0,-767.65 0,-767.65 0,-755.65 0,-755.65 0,-749.65 6,-743.65 12,-743.65 12,-743.65 63.27,-743.65 63.27,-743.65 69.27,-743.65 75.27,-749.65 75.27,-755.65 75.27,-755.65 75.27,-767.65 75.27,-767.65 75.27,-773.65 69.27,-779.65 63.27,-779.65"/>
<text text-anchor="middle" x="37.63" y="-757.2" font-family="Helvetica,sans-Serif" font-size="11.00">Sample NDA</text>
</g>
<!-- n_SampleNDA&#45;&gt;n_AcmeLtd -->
<g id="edge12" class="edge">
<title>n_SampleNDA&#45;&gt;n_AcmeLtd</title>
<path fill="none" stroke="#64748b" d="M39.3,-779.92C43.05,-878.44 62.66,-1343.93 100.27,-1394.65 128.7,-1432.99 153.07,-1424.7 199.52,-1435.65 326.87,-1465.68 686.32,-1552.84 787.31,-1469.65 867.3,-1403.76 887.04,-1060.04 891.12,-960"/>
<polygon fill="#64748b" stroke="#64748b" points="893.74,-960.2 891.41,-952.6 888.5,-960 893.74,-960.2"/>
<text text-anchor="middle" x="414.91" y="-1488.42" font-family="Helvetica,sans-Serif" font-size="9.00">has party</text>
</g>
<!-- n_SampleNDA&#45;&gt;n_AcmeLtd -->
<g id="edge13" class="edge">
<title>n_SampleNDA&#45;&gt;n_AcmeLtd</title>
<path fill="none" stroke="#64748b" d="M39.01,-779.92C40.81,-850.91 50.71,-1107.63 100.27,-1168.65 129.95,-1205.2 153.34,-1196.52 199.52,-1205.65 327.71,-1231 680.32,-1296.67 787.31,-1221.65 874.41,-1160.58 889.39,-1019.39 891.75,-959.89"/>
<polygon fill="#64748b" stroke="#64748b" points="894.36,-960.15 891.98,-952.57 889.12,-959.99 894.36,-960.15"/>
<text text-anchor="middle" x="414.91" y="-1247.59" font-family="Helvetica,sans-Serif" font-size="9.00">has signatory</text>
</g>
<!-- n_SampleNDA&#45;&gt;n_AcmeLtd -->
<g id="edge14" class="edge">
<title>n_SampleNDA&#45;&gt;n_AcmeLtd</title>
<path fill="none" stroke="#64748b" d="M55.59,-780.1C67.14,-791.62 83.36,-805.88 100.27,-814.65 140.65,-835.6 155.05,-830.08 199.52,-839.65 322.68,-866.17 353.8,-872.02 478.54,-889.65 617.33,-909.28 783.51,-923.87 855.67,-929.78"/>
<polygon fill="#64748b" stroke="#64748b" points="855.2,-932.37 862.89,-930.36 855.63,-927.14 855.2,-932.37"/>
<text text-anchor="middle" x="414.91" y="-886.98" font-family="Helvetica,sans-Serif" font-size="9.00">has supplier</text>
</g>
<!-- n_SampleNDA&#45;&gt;n_ActiveStateExample -->
<g id="edge15" class="edge">
<title>n_SampleNDA&#45;&gt;n_ActiveStateExample</title>
<path fill="none" stroke="#64748b" d="M38.2,-779.96C36.61,-862.69 34.3,-1200.96 100.27,-1277.65 134.7,-1317.69 199.18,-1325.82 239.28,-1326.7"/>
<polygon fill="#64748b" stroke="#64748b" points="239.14,-1329.33 246.66,-1326.77 239.19,-1324.08 239.14,-1329.33"/>
<text text-anchor="middle" x="137.39" y="-1318.77" font-family="Helvetica,sans-Serif" font-size="9.00">has lifecycle state</text>
</g>
<!-- n_SampleNDA&#45;&gt;n_BetaLtd -->
<g id="edge16" class="edge">
<title>n_SampleNDA&#45;&gt;n_BetaLtd</title>
<path fill="none" stroke="#64748b" d="M42.86,-743.54C50.38,-714.43 68.35,-656.54 100.27,-617.65 134.19,-576.32 148.44,-565.47 199.52,-549.65 441.57,-474.69 754.09,-539.99 857.31,-565.51"/>
<polygon fill="#64748b" stroke="#64748b" points="856.41,-567.99 864.32,-567.26 857.68,-562.89 856.41,-567.99"/>
<text text-anchor="middle" x="414.91" y="-518.98" font-family="Helvetica,sans-Serif" font-size="9.00">has customer</text>
</g>
<!-- n_SampleNDA&#45;&gt;n_BetaLtd -->
<g id="edge17" class="edge">
<title>n_SampleNDA&#45;&gt;n_BetaLtd</title>
<path fill="none" stroke="#64748b" d="M39.16,-743.46C42.1,-646.35 58.09,-192 100.27,-147.65 269.12,29.85 451.93,-46.22 649.81,-190.65 781.39,-286.69 858.41,-477.92 883.21,-548.06"/>
<polygon fill="#64748b" stroke="#64748b" points="880.66,-548.73 885.6,-554.95 885.62,-547.01 880.66,-548.73"/>
<text text-anchor="middle" x="414.91" y="-74.12" font-family="Helvetica,sans-Serif" font-size="9.00">has party</text>
</g>
<!-- n_SampleNDA&#45;&gt;n_BetaLtd -->
<g id="edge18" class="edge">
<title>n_SampleNDA&#45;&gt;n_BetaLtd</title>
<path fill="none" stroke="#64748b" d="M39.18,-743.3C42.4,-639.95 60.15,-133.16 100.27,-77.65 128.43,-38.69 152.55,-44.91 199.52,-34.65 464.73,23.27 644.72,30.34 787.31,-200.65 859.05,-316.87 882.85,-483.3 889.66,-547.74"/>
<polygon fill="#64748b" stroke="#64748b" points="887.02,-547.79 890.39,-554.98 892.25,-547.26 887.02,-547.79"/>
<text text-anchor="middle" x="414.91" y="-5.12" font-family="Helvetica,sans-Serif" font-size="9.00">has signatory</text>
</g>
<!-- n_SampleNDA&#45;&gt;n_EnglandAndWales -->
<g id="edge19" class="edge">
<title>n_SampleNDA&#45;&gt;n_EnglandAndWales</title>
<path fill="none" stroke="#64748b" d="M38.83,-780.14C40.29,-818.53 49.32,-907.17 100.27,-953.65 158.75,-1007 390.55,-1038.32 502.31,-1050.6"/>
<polygon fill="#64748b" stroke="#64748b" points="501.87,-1053.2 509.61,-1051.4 502.44,-1047.98 501.87,-1053.2"/>
<text text-anchor="middle" x="275.4" y="-1030.69" font-family="Helvetica,sans-Serif" font-size="9.00">governed by</text>
</g>
<!-- n_SampleNDA&#45;&gt;n_SampleConfidentialityClause -->
<g id="edge20" class="edge">
<title>n_SampleNDA&#45;&gt;n_SampleConfidentialityClause</title>
<path fill="none" stroke="#64748b" d="M38.9,-779.95C40.62,-890.2 51.89,-1463.23 100.27,-1522.65 122.36,-1549.79 158.07,-1562.98 191.41,-1569.21"/>
<polygon fill="#64748b" stroke="#64748b" points="190.95,-1571.8 198.79,-1570.47 191.84,-1566.62 190.95,-1571.8"/>
<text text-anchor="middle" x="137.39" y="-1566.59" font-family="Helvetica,sans-Serif" font-size="9.00">has clause</text>
</g>
<!-- n_SampleNDA&#45;&gt;n_SampleConfidentialityFinding -->
<g id="edge21" class="edge">
<title>n_SampleNDA&#45;&gt;n_SampleConfidentialityFinding</title>
<path fill="none" stroke="#64748b" d="M39.58,-780C43.23,-843.62 58.27,-1053.64 100.27,-1103.65 123.09,-1130.83 158.51,-1146.47 191.47,-1155.47"/>
<polygon fill="#64748b" stroke="#64748b" points="190.4,-1157.9 198.32,-1157.23 191.72,-1152.82 190.4,-1157.9"/>
<text text-anchor="middle" x="137.39" y="-1150.08" font-family="Helvetica,sans-Serif" font-size="9.00">has review finding</text>
</g>
<!-- n_SampleNDA&#45;&gt;n_SampleConfidentialityObligation -->
<g id="edge22" class="edge">
<title>n_SampleNDA&#45;&gt;n_SampleConfidentialityObligation</title>
<path fill="none" stroke="#64748b" d="M39.37,-779.87C43.29,-873.11 62.96,-1294.3 100.27,-1337.65 197.09,-1450.17 394.46,-1416.21 497.39,-1388.38"/>
<polygon fill="#64748b" stroke="#64748b" points="497.85,-1390.98 504.39,-1386.45 496.46,-1385.91 497.85,-1390.98"/>
<text text-anchor="middle" x="275.4" y="-1417.03" font-family="Helvetica,sans-Serif" font-size="9.00">has obligation</text>
</g>
<!-- n_SampleNDA&#45;&gt;n_SampleEffectiveDateTerm -->
<g id="edge23" class="edge">
<title>n_SampleNDA&#45;&gt;n_SampleEffectiveDateTerm</title>
<path fill="none" stroke="#64748b" d="M63.22,-743.22C74.16,-735.59 87.45,-727.11 100.27,-720.9 130.77,-706.14 166.03,-693.75 196.81,-684.32"/>
<polygon fill="#64748b" stroke="#64748b" points="197.49,-686.85 203.91,-682.17 195.97,-681.83 197.49,-686.85"/>
<text text-anchor="middle" x="137.39" y="-722.1" font-family="Helvetica,sans-Serif" font-size="9.00">has term</text>
</g>
<!-- n_SampleNDA&#45;&gt;n_SampleExecutionEvent -->
<g id="edge24" class="edge">
<title>n_SampleNDA&#45;&gt;n_SampleExecutionEvent</title>
<path fill="none" stroke="#64748b" d="M75.69,-771.17C83.76,-773.1 92.28,-775.04 100.27,-776.65 238.12,-804.55 400.71,-828.95 491.88,-841.87"/>
<polygon fill="#64748b" stroke="#64748b" points="491.46,-844.46 499.25,-842.91 492.19,-839.26 491.46,-844.46"/>
<text text-anchor="middle" x="275.4" y="-821.07" font-family="Helvetica,sans-Serif" font-size="9.00">has event</text>
</g>
<!-- n_SampleNDA&#45;&gt;n_SampleGoverningLawClause -->
<g id="edge25" class="edge">
<title>n_SampleNDA&#45;&gt;n_SampleGoverningLawClause</title>
<path fill="none" stroke="#64748b" d="M40.11,-779.79C45.05,-836.3 62.92,-1007.78 100.27,-1046.65 123.7,-1071.04 158.48,-1082.85 190.81,-1088.35"/>
<polygon fill="#64748b" stroke="#64748b" points="190.1,-1090.9 197.91,-1089.45 190.9,-1085.71 190.1,-1090.9"/>
<text text-anchor="middle" x="137.39" y="-1085.53" font-family="Helvetica,sans-Serif" font-size="9.00">has clause</text>
</g>
<!-- n_SampleNDA&#45;&gt;n_SampleMaterialBreachCondition -->
<g id="edge26" class="edge">
<title>n_SampleNDA&#45;&gt;n_SampleMaterialBreachCondition</title>
<path fill="none" stroke="#64748b" d="M38.64,-743.37C38.99,-659.09 43.87,-308.36 100.27,-217.65 184.5,-82.2 416.25,-163.33 516.24,-206.68"/>
<polygon fill="#64748b" stroke="#64748b" points="515.05,-209.02 522.97,-209.63 517.16,-204.21 515.05,-209.02"/>
<text text-anchor="middle" x="275.4" y="-152.83" font-family="Helvetica,sans-Serif" font-size="9.00">has condition</text>
</g>
<!-- n_SampleNDADocument -->
<g id="node15" class="node">
<title>n_SampleNDADocument</title>
<path fill="#f8fafc" stroke="#64748b" d="M325.79,-371.65C325.79,-371.65 225.02,-371.65 225.02,-371.65 219.02,-371.65 213.02,-365.65 213.02,-359.65 213.02,-359.65 213.02,-347.65 213.02,-347.65 213.02,-341.65 219.02,-335.65 225.02,-335.65 225.02,-335.65 325.79,-335.65 325.79,-335.65 331.79,-335.65 337.79,-341.65 337.79,-347.65 337.79,-347.65 337.79,-359.65 337.79,-359.65 337.79,-365.65 331.79,-371.65 325.79,-371.65"/>
<text text-anchor="middle" x="275.4" y="-349.2" font-family="Helvetica,sans-Serif" font-size="11.00">Sample NDA document</text>
</g>
<!-- n_SampleNDA&#45;&gt;n_SampleNDADocument -->
<g id="edge27" class="edge">
<title>n_SampleNDA&#45;&gt;n_SampleNDADocument</title>
<path fill="none" stroke="#64748b" d="M39.47,-743.36C42.75,-678.92 56.84,-463.54 100.27,-412.9 126.16,-382.72 168.06,-367.88 204.27,-360.6"/>
<polygon fill="#64748b" stroke="#64748b" points="204.48,-363.23 211.37,-359.27 203.52,-358.07 204.48,-363.23"/>
<text text-anchor="middle" x="137.39" y="-414.1" font-family="Helvetica,sans-Serif" font-size="9.00">has document</text>
</g>
<!-- n_SampleNDAFamily -->
<g id="node16" class="node">
<title>n_SampleNDAFamily</title>
<path fill="#f8fafc" stroke="#64748b" d="M316.04,-295.65C316.04,-295.65 234.77,-295.65 234.77,-295.65 228.77,-295.65 222.77,-289.65 222.77,-283.65 222.77,-283.65 222.77,-271.65 222.77,-271.65 222.77,-265.65 228.77,-259.65 234.77,-259.65 234.77,-259.65 316.04,-259.65 316.04,-259.65 322.04,-259.65 328.04,-265.65 328.04,-271.65 328.04,-271.65 328.04,-283.65 328.04,-283.65 328.04,-289.65 322.04,-295.65 316.04,-295.65"/>
<text text-anchor="middle" x="275.4" y="-273.2" font-family="Helvetica,sans-Serif" font-size="11.00">Sample NDA family</text>
</g>
<!-- n_SampleNDA&#45;&gt;n_SampleNDAFamily -->
<g id="edge28" class="edge">
<title>n_SampleNDA&#45;&gt;n_SampleNDAFamily</title>
<path fill="none" stroke="#64748b" d="M39.05,-743.23C40.99,-671.62 51.33,-412.57 100.27,-349.9 127.71,-314.77 175.24,-296.57 213.72,-287.23"/>
<polygon fill="#64748b" stroke="#64748b" points="214.09,-289.84 220.81,-285.6 212.91,-284.72 214.09,-289.84"/>
<text text-anchor="middle" x="137.39" y="-351.1" font-family="Helvetica,sans-Serif" font-size="9.00">belongs to family</text>
</g>
<!-- n_SampleNoticeClause -->
<g id="node17" class="node">
<title>n_SampleNoticeClause</title>
<path fill="#f8fafc" stroke="#64748b" d="M320.16,-605.65C320.16,-605.65 230.64,-605.65 230.64,-605.65 224.64,-605.65 218.64,-599.65 218.64,-593.65 218.64,-593.65 218.64,-581.65 218.64,-581.65 218.64,-575.65 224.64,-569.65 230.64,-569.65 230.64,-569.65 320.16,-569.65 320.16,-569.65 326.16,-569.65 332.16,-575.65 332.16,-581.65 332.16,-581.65 332.16,-593.65 332.16,-593.65 332.16,-599.65 326.16,-605.65 320.16,-605.65"/>
<text text-anchor="middle" x="275.4" y="-583.2" font-family="Helvetica,sans-Serif" font-size="11.00">Sample notice clause</text>
</g>
<!-- n_SampleNDA&#45;&gt;n_SampleNoticeClause -->
<g id="edge29" class="edge">
<title>n_SampleNDA&#45;&gt;n_SampleNoticeClause</title>
<path fill="none" stroke="#64748b" d="M47.75,-743.27C58.2,-723.73 76.93,-692.95 100.27,-672.9 132.9,-644.89 176.33,-623.6 211.65,-609.31"/>
<polygon fill="#64748b" stroke="#64748b" points="212.57,-611.77 218.58,-606.56 210.64,-606.89 212.57,-611.77"/>
<text text-anchor="middle" x="137.39" y="-674.1" font-family="Helvetica,sans-Serif" font-size="9.00">has clause</text>
</g>
<!-- n_SampleNoticeObligation -->
<g id="node18" class="node">
<title>n_SampleNoticeObligation</title>
<path fill="#f8fafc" stroke="#64748b" d="M616.43,-695.65C616.43,-695.65 511.91,-695.65 511.91,-695.65 505.91,-695.65 499.91,-689.65 499.91,-683.65 499.91,-683.65 499.91,-671.65 499.91,-671.65 499.91,-665.65 505.91,-659.65 511.91,-659.65 511.91,-659.65 616.43,-659.65 616.43,-659.65 622.43,-659.65 628.43,-665.65 628.43,-671.65 628.43,-671.65 628.43,-683.65 628.43,-683.65 628.43,-689.65 622.43,-695.65 616.43,-695.65"/>
<text text-anchor="middle" x="564.17" y="-673.2" font-family="Helvetica,sans-Serif" font-size="11.00">Sample notice obligation</text>
</g>
<!-- n_SampleNDA&#45;&gt;n_SampleNoticeObligation -->
<g id="edge30" class="edge">
<title>n_SampleNDA&#45;&gt;n_SampleNoticeObligation</title>
<path fill="none" stroke="#64748b" d="M75.52,-755.75C161.66,-741.95 377.32,-707.42 490.79,-689.25"/>
<polygon fill="#64748b" stroke="#64748b" points="490.96,-691.88 497.95,-688.1 490.13,-686.69 490.96,-691.88"/>
<text text-anchor="middle" x="275.4" y="-735.95" font-family="Helvetica,sans-Serif" font-size="9.00">has obligation</text>
</g>
<!-- n_SampleTerminationRemedy -->
<g id="node19" class="node">
<title>n_SampleTerminationRemedy</title>
<path fill="#f8fafc" stroke="#64748b" d="M335.16,-219.65C335.16,-219.65 215.64,-219.65 215.64,-219.65 209.64,-219.65 203.64,-213.65 203.64,-207.65 203.64,-207.65 203.64,-195.65 203.64,-195.65 203.64,-189.65 209.64,-183.65 215.64,-183.65 215.64,-183.65 335.16,-183.65 335.16,-183.65 341.16,-183.65 347.16,-189.65 347.16,-195.65 347.16,-195.65 347.16,-207.65 347.16,-207.65 347.16,-213.65 341.16,-219.65 335.16,-219.65"/>
<text text-anchor="middle" x="275.4" y="-197.2" font-family="Helvetica,sans-Serif" font-size="11.00">Sample termination remedy</text>
</g>
<!-- n_SampleNDA&#45;&gt;n_SampleTerminationRemedy -->
<g id="edge31" class="edge">
<title>n_SampleNDA&#45;&gt;n_SampleTerminationRemedy</title>
<path fill="none" stroke="#64748b" d="M38.68,-743.29C39.23,-664.71 44.92,-357.29 100.27,-281.9 122.98,-250.98 160.54,-231.63 194.97,-219.71"/>
<polygon fill="#64748b" stroke="#64748b" points="195.46,-222.31 201.75,-217.46 193.8,-217.33 195.46,-222.31"/>
<text text-anchor="middle" x="137.39" y="-283.1" font-family="Helvetica,sans-Serif" font-size="9.00">has remedy</text>
</g>
<!-- n_SampleTerminationRight -->
<g id="node20" class="node">
<title>n_SampleTerminationRight</title>
<path fill="#f8fafc" stroke="#64748b" d="M327.66,-447.65C327.66,-447.65 223.14,-447.65 223.14,-447.65 217.14,-447.65 211.14,-441.65 211.14,-435.65 211.14,-435.65 211.14,-423.65 211.14,-423.65 211.14,-417.65 217.14,-411.65 223.14,-411.65 223.14,-411.65 327.66,-411.65 327.66,-411.65 333.66,-411.65 339.66,-417.65 339.66,-423.65 339.66,-423.65 339.66,-435.65 339.66,-435.65 339.66,-441.65 333.66,-447.65 327.66,-447.65"/>
<text text-anchor="middle" x="275.4" y="-425.2" font-family="Helvetica,sans-Serif" font-size="11.00">Sample termination right</text>
</g>
<!-- n_SampleNDA&#45;&gt;n_SampleTerminationRight -->
<g id="edge32" class="edge">
<title>n_SampleNDA&#45;&gt;n_SampleTerminationRight</title>
<path fill="none" stroke="#64748b" d="M39.93,-743.32C44.4,-685.34 61.12,-507.42 100.27,-467.9 126.58,-441.35 166.82,-431.34 201.99,-428.17"/>
<polygon fill="#64748b" stroke="#64748b" points="202.02,-430.8 209.3,-427.62 201.62,-425.56 202.02,-430.8"/>
<text text-anchor="middle" x="137.39" y="-469.1" font-family="Helvetica,sans-Serif" font-size="9.00">has right</text>
</g>
<!-- n_SampleNoticeClause&#45;&gt;n_SampleNoticeObligation -->
<g id="edge33" class="edge">
<title>n_SampleNoticeClause&#45;&gt;n_SampleNoticeObligation</title>
<path fill="none" stroke="#64748b" d="M332.38,-605.22C379.22,-619.92 446.19,-640.94 495.93,-656.55"/>
<polygon fill="#64748b" stroke="#64748b" points="495,-659.01 502.94,-658.75 496.57,-654 495,-659.01"/>
<text text-anchor="middle" x="414.91" y="-641.92" font-family="Helvetica,sans-Serif" font-size="9.00">imposes obligation</text>
</g>
<!-- n_SampleNoticeObligation&#45;&gt;n_AcmeLtd -->
<g id="edge34" class="edge">
<title>n_SampleNoticeObligation&#45;&gt;n_AcmeLtd</title>
<path fill="none" stroke="#64748b" d="M628.73,-662.62C676.5,-655.1 741.35,-653.34 787.31,-684.9 862.12,-736.27 883.72,-852.42 889.79,-905.39"/>
<polygon fill="#64748b" stroke="#64748b" points="887.16,-905.54 890.56,-912.72 892.38,-904.99 887.16,-905.54"/>
<text text-anchor="middle" x="731.06" y="-686.1" font-family="Helvetica,sans-Serif" font-size="9.00">owed by</text>
</g>
<!-- n_SampleNoticeObligation&#45;&gt;n_AcmeLtd -->
<g id="edge35" class="edge">
<title>n_SampleNoticeObligation&#45;&gt;n_AcmeLtd</title>
<path fill="none" stroke="#64748b" d="M628.93,-689.76C685.49,-701.51 762.84,-720.4 787.31,-739.9 842.1,-783.59 872.25,-864.05 884.87,-905.86"/>
<polygon fill="#64748b" stroke="#64748b" points="882.32,-906.49 886.95,-912.95 887.36,-905.02 882.32,-906.49"/>
<text text-anchor="middle" x="731.06" y="-741.1" font-family="Helvetica,sans-Serif" font-size="9.00">owed to</text>
</g>
<!-- n_SampleNoticeObligation&#45;&gt;n_BetaLtd -->
<g id="edge36" class="edge">
<title>n_SampleNoticeObligation&#45;&gt;n_BetaLtd</title>
<path fill="none" stroke="#64748b" d="M603.39,-659.2C624.18,-649.61 650.55,-638.21 674.81,-629.9 737.72,-608.36 813.42,-590.97 856.83,-581.78"/>
<polygon fill="#64748b" stroke="#64748b" points="857.3,-584.36 864.1,-580.25 856.22,-579.22 857.3,-584.36"/>
<text text-anchor="middle" x="731.06" y="-631.1" font-family="Helvetica,sans-Serif" font-size="9.00">owed by</text>
</g>
<!-- n_SampleNoticeObligation&#45;&gt;n_BetaLtd -->
<g id="edge37" class="edge">
<title>n_SampleNoticeObligation&#45;&gt;n_BetaLtd</title>
<path fill="none" stroke="#64748b" d="M578.26,-659.4C596.67,-635.46 632.69,-594.56 674.81,-577.9 735.36,-553.96 813.03,-560.83 857.2,-567.84"/>
<polygon fill="#64748b" stroke="#64748b" points="856.52,-570.39 864.35,-569.03 857.38,-565.21 856.52,-570.39"/>
<text text-anchor="middle" x="731.06" y="-579.1" font-family="Helvetica,sans-Serif" font-size="9.00">owed to</text>
</g>
<!-- n_SampleTerminationRemedy&#45;&gt;n_SampleMaterialBreachCondition -->
<g id="edge38" class="edge">
<title>n_SampleTerminationRemedy&#45;&gt;n_SampleMaterialBreachCondition</title>
<path fill="none" stroke="#64748b" d="M347.6,-208.86C357.24,-209.81 367.01,-210.77 376.29,-211.65 406.69,-214.56 439.89,-217.62 469.76,-220.32"/>
<polygon fill="#64748b" stroke="#64748b" points="469.29,-222.92 476.99,-220.98 469.76,-217.69 469.29,-222.92"/>
<text text-anchor="middle" x="414.91" y="-220.02" font-family="Helvetica,sans-Serif" font-size="9.00">remediates</text>
</g>
<!-- n_SampleTerminationRemedy&#45;&gt;n_SampleMaterialBreachCondition -->
<g id="edge39" class="edge">
<title>n_SampleTerminationRemedy&#45;&gt;n_SampleMaterialBreachCondition</title>
<path fill="none" stroke="#64748b" d="M347.61,-201.05C357.25,-200.99 367.01,-200.94 376.29,-200.9 410.62,-200.78 419.47,-196.66 453.54,-200.9 466.41,-202.51 479.93,-205.13 492.91,-208.14"/>
<polygon fill="#64748b" stroke="#64748b" points="491.98,-210.61 499.89,-209.81 493.21,-205.51 491.98,-210.61"/>
<text text-anchor="middle" x="414.91" y="-202.1" font-family="Helvetica,sans-Serif" font-size="9.00">triggered by</text>
</g>
<!-- n_SampleTerminationRight&#45;&gt;n_AcmeLtd -->
<g id="edge40" class="edge">
<title>n_SampleTerminationRight&#45;&gt;n_AcmeLtd</title>
<path fill="none" stroke="#64748b" d="M288.68,-447.73C330.44,-509.1 465.1,-706.22 478.54,-715.65 595.03,-797.44 668.59,-722.14 787.31,-800.65 828.53,-827.91 860.96,-876.66 878.26,-906.68"/>
<polygon fill="#64748b" stroke="#64748b" points="875.81,-907.69 881.78,-912.93 880.38,-905.11 875.81,-907.69"/>
<text text-anchor="middle" x="564.17" y="-761.02" font-family="Helvetica,sans-Serif" font-size="9.00">exercisable by</text>
</g>
<!-- n_SampleTerminationRight&#45;&gt;n_BetaLtd -->
<g id="edge41" class="edge">
<title>n_SampleTerminationRight&#45;&gt;n_BetaLtd</title>
<path fill="none" stroke="#64748b" d="M339.81,-423C439.73,-415.22 637.86,-410.86 787.31,-477.65 822.79,-493.51 854.1,-526.33 873.05,-549.38"/>
<polygon fill="#64748b" stroke="#64748b" points="870.83,-550.81 877.57,-555.01 874.92,-547.52 870.83,-550.81"/>
<text text-anchor="middle" x="564.17" y="-436.66" font-family="Helvetica,sans-Serif" font-size="9.00">exercisable by</text>
</g>
<!-- n_SampleTerminationRight&#45;&gt;n_SampleMaterialBreachCondition -->
<g id="edge42" class="edge">
<title>n_SampleTerminationRight&#45;&gt;n_SampleMaterialBreachCondition</title>
<path fill="none" stroke="#64748b" d="M316.03,-411.27C327.64,-405.43 340.19,-398.65 351.29,-391.65 421.24,-347.54 496.47,-285.86 535.74,-252.45"/>
<polygon fill="#64748b" stroke="#64748b" points="537.04,-254.79 541.03,-247.92 533.63,-250.8 537.04,-254.79"/>
<text text-anchor="middle" x="414.91" y="-372.89" font-family="Helvetica,sans-Serif" font-size="9.00">triggered by</text>
</g>
</g>
</svg>
